<svg width="152" height="142" viewBox="0 0 152 142" fill="none" xmlns="http://www.w3.org/2000/svg">
<circle cx="70.7178" cy="71.3411" r="70" fill="white" fill-opacity="0.1"/>
<path d="M72.3602 55.2995H81.2232L87.729 48.8" stroke="white" stroke-width="2" stroke-miterlimit="10" stroke-linejoin="bevel"/>
<path d="M92.602 72.7776H72.3602" stroke="white" stroke-width="2" stroke-miterlimit="10" stroke-linejoin="bevel"/>
<path d="M72.3602 91.1134H81.2232L87.729 97.6129" stroke="white" stroke-width="2" stroke-miterlimit="10" stroke-linejoin="bevel"/>
<path d="M90.9474 39.1759L84.5277 45.5956L90.9474 52.0153L97.3672 45.5956L90.9474 39.1759Z" stroke="white" stroke-width="2" stroke-miterlimit="10" stroke-linejoin="bevel"/>
<path d="M90.9479 94.3985L84.5282 100.818L90.9479 107.238L97.3677 100.818L90.9479 94.3985Z" stroke="white" stroke-width="2" stroke-miterlimit="10" stroke-linejoin="bevel"/>
<path d="M101.681 68.2349H92.6019V77.3138H101.681V68.2349Z" stroke="white" stroke-width="2" stroke-miterlimit="10" stroke-linejoin="bevel"/>
<g filter="url(#filter0_di)">
<path fill-rule="evenodd" clip-rule="evenodd" d="M71.4073 117.384V102.125C68.9784 109.317 62.1769 114.494 54.1641 114.494C44.113 114.494 35.968 106.349 35.968 96.2977C35.968 94.3917 36.2603 92.5492 36.8067 90.8211C33.0709 88.877 30.5168 84.976 30.5168 80.4778C30.5168 76.5388 32.4737 73.0635 35.4598 70.9542C32.5944 67.7394 30.8536 63.5017 30.8536 58.8637C30.8536 48.8127 38.9986 40.6677 49.0496 40.6677C49.0814 40.6677 49.1115 40.6693 49.1417 40.6709C49.1719 40.6724 49.2021 40.674 49.2338 40.674C50.1996 35.2101 54.9646 31.0614 60.7017 31.0614C65.5008 31.0614 69.6217 33.9618 71.4073 38.1055V22.084H73.3134V117.384H71.4073ZM55.8114 58.6534C52.5711 53.1492 45.481 51.3137 39.9824 54.5547L40.9502 56.1967C45.5405 53.4911 51.4617 55.0226 54.1684 59.6196C55.453 61.8061 55.7824 64.2851 55.2815 66.5783C51.2813 67.5577 47.9347 70.6475 46.8308 74.9151L48.6761 75.3924C50.0117 70.2289 55.2794 67.1291 60.4438 68.465L60.444 68.4651C63.15 69.1647 65.2889 70.9442 66.5216 73.2244L68.1982 72.318C66.7244 69.5918 64.1618 67.4576 60.9212 66.6198C59.6986 66.3035 58.4711 66.1949 57.2761 66.272C57.6666 63.7323 57.2165 61.0451 55.8118 58.6541L55.8114 58.6534ZM58.5895 84.8385C56.1557 84.3149 53.5197 84.7676 51.3241 86.3045C47.1251 89.2432 46.1058 95.0282 49.044 99.2266L50.6056 98.1338C48.2705 94.7972 49.081 90.2008 52.417 87.8661L52.4171 87.866C54.1605 86.6456 56.2514 86.2851 58.1887 86.7019L58.5895 84.8385Z" fill="url(#paint0_linear)"/>
</g>
<defs>
<filter id="filter0_di" x="19.8359" y="11.4031" width="64.1584" height="116.662" filterUnits="userSpaceOnUse" color-interpolation-filters="sRGB">
<feFlood flood-opacity="0" result="BackgroundImageFix"/>
<feColorMatrix in="SourceAlpha" type="matrix" values="0 0 0 0 0 0 0 0 0 0 0 0 0 0 0 0 0 0 127 0"/>
<feOffset/>
<feGaussianBlur stdDeviation="5.34046"/>
<feColorMatrix type="matrix" values="0 0 0 0 0.191667 0 0 0 0 1 0 0 0 0 0.612 0 0 0 0.7 0"/>
<feBlend mode="normal" in2="BackgroundImageFix" result="effect1_dropShadow"/>
<feBlend mode="normal" in="SourceGraphic" in2="effect1_dropShadow" result="shape"/>
<feColorMatrix in="SourceAlpha" type="matrix" values="0 0 0 0 0 0 0 0 0 0 0 0 0 0 0 0 0 0 127 0" result="hardAlpha"/>
<feOffset/>
<feGaussianBlur stdDeviation="2.06746"/>
<feComposite in2="hardAlpha" operator="arithmetic" k2="-1" k3="1"/>
<feColorMatrix type="matrix" values="0 0 0 0 0.192157 0 0 0 0 1 0 0 0 0 0.611765 0 0 0 0.5 0"/>
<feBlend mode="normal" in2="shape" result="effect2_innerShadow"/>
</filter>
<linearGradient id="paint0_linear" x1="51.9151" y1="22.084" x2="51.9151" y2="117.384" gradientUnits="userSpaceOnUse">
<stop stop-color="#45FF27"/>
<stop offset="1" stop-color="#17FFB9"/>
</linearGradient>
</defs>
</svg>
