<svg width="84" height="97" viewBox="0 0 84 97" fill="none" xmlns="http://www.w3.org/2000/svg">
<g clip-path="url(#clip0)">
<path d="M41.742 8.59766V16.5597L46.7846 10.9311L41.742 16.5597H48.8751H41.742L46.7846 22.1884L41.742 16.5597V24.5218V16.5597L36.6919 22.1884L41.742 16.5597H34.6089H41.742L36.6919 10.9311L41.742 16.5597V8.59766Z" stroke="#31FF9C" stroke-width="2.5814" stroke-miterlimit="10" stroke-linejoin="bevel"/>
<path d="M22.411 35.3693H13.9517V83.2336H22.411V35.3693Z" stroke="white" stroke-width="2.5814" stroke-miterlimit="10" stroke-linejoin="bevel"/>
<path d="M37.9061 35.3693H29.4468V83.2336H37.9061V35.3693Z" stroke="white" stroke-width="2.5814" stroke-miterlimit="10" stroke-linejoin="bevel"/>
<path d="M53.4085 35.3693H44.9492V83.2336H53.4085V35.3693Z" stroke="white" stroke-width="2.5814" stroke-miterlimit="10" stroke-linejoin="bevel"/>
<path d="M68.9034 35.3693H60.4441V83.2336H68.9034V35.3693Z" stroke="white" stroke-width="2.5814" stroke-miterlimit="10" stroke-linejoin="bevel"/>
<path d="M76.9356 83.2253H6.54883V89.3892H76.9356V83.2253Z" stroke="white" stroke-width="2.5814" stroke-miterlimit="10" stroke-linejoin="bevel"/>
<path d="M82.3226 89.3892H1.15381V95.712H82.3226V89.3892Z" stroke="white" stroke-width="2.5814" stroke-miterlimit="10" stroke-linejoin="bevel"/>
<path d="M76.9356 31.7395H6.54883" stroke="white" stroke-width="2.5814" stroke-miterlimit="10" stroke-linejoin="bevel"/>
<path d="M82.3226 28.0261H1.15381L41.7419 1.1123L82.3226 28.0261Z" stroke="white" stroke-width="2.5814" stroke-miterlimit="10" stroke-linejoin="bevel"/>
<path d="M12.2583 35.202H24.1043" stroke="white" stroke-width="2.5814" stroke-miterlimit="10" stroke-linejoin="bevel"/>
<path d="M27.7529 35.202H39.5989" stroke="white" stroke-width="2.5814" stroke-miterlimit="10" stroke-linejoin="bevel"/>
<path d="M43.2554 35.202H55.1014" stroke="white" stroke-width="2.5814" stroke-miterlimit="10" stroke-linejoin="bevel"/>
<path d="M58.7505 35.202H70.5965" stroke="white" stroke-width="2.5814" stroke-miterlimit="10" stroke-linejoin="bevel"/>
</g>
<defs>
<clipPath id="clip0">
<rect width="83.4765" height="97" fill="white"/>
</clipPath>
</defs>
</svg>
