<svg width="120" height="89" viewBox="0 0 120 89" fill="none" xmlns="http://www.w3.org/2000/svg">
<g clip-path="url(#clip0)">
<path d="M56.813 24.2473H114.99" stroke="#31FF9C" stroke-width="2.53693" stroke-miterlimit="10" stroke-linejoin="bevel"/>
<path d="M86.5176 66.0596C103.885 66.0596 117.973 51.9797 117.973 34.6038C117.973 17.2279 103.893 3.15625 86.5176 3.15625" stroke="#31FF9C" stroke-width="2.53693" stroke-miterlimit="10" stroke-linejoin="bevel"/>
<path d="M115.105 46.448H57.3716" stroke="#31FF9C" stroke-width="2.53693" stroke-miterlimit="10" stroke-linejoin="bevel"/>
<path d="M86.5178 66.0596C93.2362 66.0596 98.6825 51.9764 98.6825 34.6038C98.6825 17.2313 93.2362 3.14807 86.5178 3.14807C79.7994 3.14807 74.353 17.2313 74.353 34.6038C74.353 51.9764 79.7994 66.0596 86.5178 66.0596Z" stroke="#31FF9C" stroke-width="2.53693" stroke-miterlimit="10" stroke-linejoin="bevel"/>
<path d="M86.5179 66.0602C69.1502 66.0602 55.0703 51.9803 55.0703 34.6044C55.0703 17.2285 69.1502 3.15686 86.5179 3.15686" stroke="#31FF9C" stroke-width="2.53693" stroke-miterlimit="10" stroke-linejoin="bevel"/>
<path d="M76.4245 11.8277C63.1666 -1.43021 41.5906 -1.43021 28.3326 11.8277C21.9133 18.2553 18.3789 26.7953 18.3789 35.8778C18.3789 44.9603 21.9133 53.492 28.3326 59.9196C34.9657 66.5445 43.6701 69.8651 52.3827 69.8651C61.0871 69.8651 69.7915 66.5445 76.4245 59.9196C89.6825 46.6617 89.6825 25.0857 76.4245 11.8277ZM75.9971 59.2456C69.7257 65.5171 61.383 68.9692 52.5142 68.9692C43.6372 68.9692 35.2945 65.5171 29.0231 59.2456C16.0692 46.2918 16.0692 25.2172 29.0231 12.2634C35.5 5.79467 44.0071 2.55621 52.5142 2.55621C61.0213 2.55621 69.5202 5.79467 75.9971 12.2634C82.2768 18.543 85.7289 26.8857 85.7289 35.7545C85.7289 40.1848 84.8659 44.4918 83.222 48.47C81.5699 52.4482 79.1369 56.1058 75.9971 59.2456ZM31.0944 14.3347C19.283 26.146 19.283 45.363 31.0944 57.1743C36.9959 63.0759 44.7551 66.0349 52.5142 66.0349C56.3938 66.0349 60.2651 65.2951 63.9146 63.8156C67.564 62.3444 70.975 60.1251 73.934 57.1743C85.7454 45.363 85.7454 26.146 73.934 14.3347C62.1227 2.52334 42.8975 2.52334 31.0944 14.3347ZM73.1285 56.6236C61.6871 68.0651 43.0701 68.0651 31.6286 56.6236C26.0887 51.0837 23.0393 43.7109 23.0393 35.8778C23.0393 28.0365 26.0887 20.6636 31.6286 15.1237C37.0535 9.6989 44.0975 6.84676 51.2238 6.5673C51.3717 6.55908 51.5197 6.55086 51.6676 6.55086C51.906 6.54264 52.1443 6.54264 52.3827 6.54264C59.8953 6.54264 67.4078 9.403 73.1285 15.1237C84.57 26.5652 84.57 45.1822 73.1285 56.6236Z" fill="white"/>
<path d="M27.2404 59.8834L22.1724 64.9514L23.9683 66.7473L29.0363 61.6793L27.2404 59.8834Z" fill="white"/>
<path d="M73.934 14.3347C62.1227 2.52337 42.8974 2.52337 31.0943 14.3347C19.283 26.146 19.283 45.363 31.0943 57.1744C36.9959 63.0759 44.755 66.0349 52.5142 66.0349C56.3937 66.0349 60.2651 65.2952 63.9145 63.8157C67.5639 62.3444 70.975 60.1251 73.934 57.1744C85.7453 45.363 85.7453 26.146 73.934 14.3347ZM32.8862 55.3825C22.0694 44.5575 22.0694 26.9515 32.8862 16.1265C37.563 11.4497 43.5057 8.79479 49.6291 8.1619C50.5908 8.06326 51.5525 8.01395 52.5142 8.01395C52.7279 8.01395 52.9334 8.01395 53.1471 8.03038C54.9225 8.06326 56.6979 8.26875 58.4404 8.65506C59.3856 8.85233 60.3226 9.10713 61.2514 9.42769C65.2296 10.7264 68.9695 12.962 72.134 16.1265C82.9589 26.9515 82.9589 44.5575 72.134 55.3825C61.3172 66.1993 43.7112 66.1993 32.8862 55.3825Z" fill="white"/>
<path d="M24.8802 65.8294L23.0802 64.0376L20.4993 61.4567H18.8307L0 80.2874V81.9559L7.03583 89H8.70438L27.5433 70.1693V68.4925L24.8802 65.8294ZM7.87421 86.4931L2.49871 81.1258L19.6609 63.9636L25.0364 69.3309L7.87421 86.4931Z" fill="white"/>
<path d="M51.4516 6.33576L36.0615 21.7258L37.8574 23.5217L53.2475 8.13166L51.4516 6.33576Z" fill="white"/>
<path d="M59.4978 7.59421L36.0698 31.0222L37.8657 32.8181L61.2937 9.3901L59.4978 7.59421Z" fill="white"/>
<path d="M77.7968 10.4716C71.0404 3.7234 62.0648 0 52.5138 0C42.9628 0 33.979 3.7234 27.2308 10.4716C20.4745 17.2279 16.7593 26.2035 16.7593 35.7545C16.7593 45.0343 20.269 53.7797 26.6637 60.4621C26.8527 60.6594 27.0418 60.8484 27.2308 61.0375C27.6418 61.4485 28.0528 61.843 28.4802 62.2293C35.0722 68.2295 43.5382 71.509 52.5138 71.509C57.2893 71.509 61.9168 70.5803 66.2074 68.8049C70.4815 67.0295 74.4186 64.4157 77.7968 61.0375C84.5449 54.2811 88.2683 45.3055 88.2683 35.7545C88.2683 26.2035 84.5449 17.2279 77.7968 10.4716ZM52.5138 68.9692C43.6368 68.9692 35.2941 65.5171 29.0227 59.2457C16.0688 46.2918 16.0688 25.2172 29.0227 12.2634C35.4996 5.7947 44.0067 2.55624 52.5138 2.55624C61.0209 2.55624 69.5198 5.7947 75.9967 12.2634C82.2764 18.543 85.7285 26.8858 85.7285 35.7545C85.7285 40.1848 84.8655 44.4918 83.2216 48.47C81.5695 52.4482 79.1365 56.1058 75.9967 59.2457C69.7253 65.5171 61.3826 68.9692 52.5138 68.9692Z" fill="white"/>
</g>
<defs>
<clipPath id="clip0">
<rect width="119.239" height="89" fill="white"/>
</clipPath>
</defs>
</svg>
