<svg width="85" height="101" viewBox="0 0 85 101" fill="none" xmlns="http://www.w3.org/2000/svg">
<g clip-path="url(#clip0)">
<path d="M72.3154 59.585V47.9239" stroke="#31FF9C" stroke-width="2.82069" stroke-miterlimit="10" stroke-linejoin="bevel"/>
<path d="M72.3154 50.6747C74.8793 50.6747 76.9579 48.5961 76.9579 46.0322C76.9579 43.4682 74.8793 41.3896 72.3154 41.3896C69.7514 41.3896 67.6729 43.4682 67.6729 46.0322C67.6729 48.5961 69.7514 50.6747 72.3154 50.6747Z" fill="#31FF9C"/>
<path d="M24.5923 44.1496V25.9542" stroke="#31FF9C" stroke-width="2.82069" stroke-miterlimit="10" stroke-linejoin="bevel"/>
<path d="M24.5923 28.8877C26.7273 28.8877 28.458 27.157 28.458 25.022C28.458 22.887 26.7273 21.1563 24.5923 21.1563C22.4573 21.1563 20.7266 22.887 20.7266 25.022C20.7266 27.157 22.4573 28.8877 24.5923 28.8877Z" fill="#31FF9C"/>
<path d="M80.1565 9.7968H67.8374V0H80.1565L76.3639 5.37362L80.1565 9.7968Z" fill="#31FF9C"/>
<path d="M69.1626 25.022V8.70013" stroke="#31FF9C" stroke-width="2.82069" stroke-miterlimit="10" stroke-linejoin="bevel"/>
<path d="M55.1161 52.539H38.0996V39.0135H55.1161L49.8795 46.4343L55.1161 52.539Z" fill="#31FF9C"/>
<path d="M39.0503 67.9287V52.539" stroke="#31FF9C" stroke-width="2.82069" stroke-miterlimit="10" stroke-linejoin="bevel"/>
<path d="M10.8477 32.6986H80.7229" stroke="white" stroke-width="2.82069" stroke-miterlimit="10" stroke-linejoin="bevel"/>
<path d="M45.8862 83.5743C66.7044 83.5743 83.5838 66.695 83.5838 45.8768C83.5838 25.0586 66.7136 8.1792 45.8862 8.1792" stroke="white" stroke-width="2.82069" stroke-miterlimit="10" stroke-linejoin="bevel"/>
<path d="M80.1569 60.0693H10.9487" stroke="white" stroke-width="2.82069" stroke-miterlimit="10" stroke-linejoin="bevel"/>
<path d="M45.8863 83.5743C53.9417 83.5743 60.4718 66.6965 60.4718 45.8768C60.4718 25.057 53.9417 8.1792 45.8863 8.1792C37.8309 8.1792 31.3008 25.057 31.3008 45.8768C31.3008 66.6965 37.8309 83.5743 45.8863 83.5743Z" stroke="white" stroke-width="2.82069" stroke-miterlimit="10" stroke-linejoin="bevel"/>
<path d="M45.886 83.5743C25.0678 83.5743 8.18848 66.695 8.18848 45.8768C8.18848 25.0586 25.0678 8.1792 45.886 8.1792" stroke="white" stroke-width="2.82069" stroke-miterlimit="10" stroke-linejoin="bevel"/>
<path d="M45.7945 90.2548C21.2843 90.2548 1.4165 70.3871 1.4165 45.8768C1.4165 21.3665 21.2843 1.49878 45.7945 1.49878" stroke="white" stroke-width="2.82069" stroke-miterlimit="10" stroke-linejoin="bevel"/>
<path d="M24.1997 99.3113H67.5725" stroke="white" stroke-width="2.82069" stroke-miterlimit="10" stroke-linejoin="bevel"/>
<path d="M45.8857 83.7662V99.0646" stroke="white" stroke-width="2.82069" stroke-miterlimit="10" stroke-linejoin="bevel"/>
</g>
<defs>
<clipPath id="clip0">
<rect width="85" height="100.728" fill="white"/>
</clipPath>
</defs>
</svg>
