<svg width="138" height="78" viewBox="0 0 138 78" fill="none" xmlns="http://www.w3.org/2000/svg">
<g clip-path="url(#clip0)">
<path d="M46.9941 44.0221H1.25732V49.3789H46.9941V44.0221Z" stroke="#31FF9C" stroke-width="2.52038" stroke-miterlimit="10" stroke-linejoin="bevel"/>
<path d="M92.7308 36.1175H44.6831V41.4416H92.7308V36.1175Z" stroke="#31FF9C" stroke-width="2.52038" stroke-miterlimit="10" stroke-linejoin="bevel"/>
<path d="M136.067 49.9505H90.4199V55.2746H136.067V49.9505Z" stroke="#31FF9C" stroke-width="2.52038" stroke-miterlimit="10" stroke-linejoin="bevel"/>
<path d="M46.9944 53.5435H3.57666V76.7345H46.9944V53.5435Z" stroke="white" stroke-width="2.52038" stroke-miterlimit="10" stroke-linejoin="bevel"/>
<path d="M90.4119 45.6389H46.9941V76.7344H90.4119V45.6389Z" stroke="white" stroke-width="2.52038" stroke-miterlimit="10" stroke-linejoin="bevel"/>
<path d="M134.107 59.48H90.4199V76.7426H134.107V59.48Z" stroke="white" stroke-width="2.52038" stroke-miterlimit="10" stroke-linejoin="bevel"/>
<path d="M68.7075 24.7182C62.9016 24.7182 58.1899 20.0065 58.1899 14.2006V1.25775H79.2251V14.1924C79.2251 20.0065 74.5134 24.7182 68.7075 24.7182Z" stroke="#31FF9C" stroke-width="2.52038" stroke-miterlimit="10" stroke-linejoin="bevel"/>
<path d="M70.2424 24.7018H67.1639C67.1149 28.9398 64.5019 32.8268 60.1821 35.8481H77.216C72.9045 32.8268 70.2914 28.9398 70.2424 24.7018Z" stroke="#31FF9C" stroke-width="2.52038" stroke-miterlimit="10" stroke-linejoin="bevel"/>
<path d="M79.0859 4.89954H87.0395V10.6728C87.0395 14.1024 83.667 17.6872 79.3554 16.4705" stroke="#31FF9C" stroke-width="2.52038" stroke-miterlimit="10" stroke-linejoin="bevel"/>
<path d="M58.3202 4.8996H50.3667V10.6728C50.3667 14.1025 53.7392 17.6873 58.0507 16.4706" stroke="#31FF9C" stroke-width="2.52038" stroke-miterlimit="10" stroke-linejoin="bevel"/>
<path d="M112.394 41.0824C107.969 41.0824 104.384 37.4976 104.384 33.0717V23.2156H120.413V33.0717C120.413 37.4976 116.82 41.0824 112.394 41.0824Z" stroke="#31FF9C" stroke-width="2.52038" stroke-miterlimit="10" stroke-linejoin="bevel"/>
<path d="M113.57 41.0743H111.227C111.186 44.3079 109.201 47.264 105.911 49.5667H118.886C115.595 47.2558 113.611 44.2998 113.57 41.0743Z" stroke="#31FF9C" stroke-width="2.52038" stroke-miterlimit="10" stroke-linejoin="bevel"/>
<path d="M120.307 25.9921H126.366V30.3934C126.366 33.0065 123.794 35.7339 120.511 34.8112" stroke="#31FF9C" stroke-width="2.52038" stroke-miterlimit="10" stroke-linejoin="bevel"/>
<path d="M104.49 25.9921H98.4307V30.3934C98.4307 33.0065 101.003 35.7339 104.286 34.8112" stroke="#31FF9C" stroke-width="2.52038" stroke-miterlimit="10" stroke-linejoin="bevel"/>
<path d="M24.1947 34.4844C19.1972 34.4844 15.147 30.4341 15.147 25.4366V14.3148H33.2343V25.4366C33.2425 30.4341 29.1922 34.4844 24.1947 34.4844Z" stroke="#31FF9C" stroke-width="2.52038" stroke-miterlimit="10" stroke-linejoin="bevel"/>
<path d="M25.5177 34.468H22.872C22.8312 38.1181 20.5856 41.458 16.8701 44.0465H31.5196C27.8123 41.458 25.5586 38.1181 25.5177 34.468Z" stroke="#31FF9C" stroke-width="2.52038" stroke-miterlimit="10" stroke-linejoin="bevel"/>
<path d="M33.1284 17.4423H39.9714V22.4071C39.9714 25.3549 37.0725 28.4335 33.3652 27.3964" stroke="#31FF9C" stroke-width="2.52038" stroke-miterlimit="10" stroke-linejoin="bevel"/>
<path d="M15.2697 17.4422H8.42676V22.407C8.42676 25.3549 11.3256 28.4334 15.0329 27.3963" stroke="#31FF9C" stroke-width="2.52038" stroke-miterlimit="10" stroke-linejoin="bevel"/>
</g>
<defs>
<clipPath id="clip0">
<rect width="137.325" height="78" fill="white"/>
</clipPath>
</defs>
</svg>
