<svg width="151" height="142" viewBox="0 0 151 142" fill="none" xmlns="http://www.w3.org/2000/svg">
<circle cx="70" cy="71.2571" r="70" fill="white" fill-opacity="0.1"/>
<path d="M33.5905 47.8107C41.2046 36.0874 54.4386 28.292 69.4855 28.292C80.7858 28.292 91.0588 32.6429 98.7333 39.834" stroke="white" stroke-width="2" stroke-miterlimit="10" stroke-linejoin="bevel"/>
<path d="M104.777 47.8107L91.0591 45.3936L98.4919 39.6528L105.623 34.0933L104.777 47.8107Z" stroke="white" stroke-width="2" stroke-miterlimit="10" stroke-linejoin="bevel"/>
<g filter="url(#filter0_i_6_32)">
<path fill-rule="evenodd" clip-rule="evenodd" d="M58.87 58.3692C58.87 52.4654 63.6318 47.7036 69.5357 47.7036C75.4395 47.7036 80.2013 52.4654 80.2013 58.3692C80.2013 61.1771 79.5193 64.7793 77.8838 67.716C76.2358 70.675 73.5361 73.0759 69.5357 73.0759C65.5097 73.0759 62.8088 70.677 61.1661 67.7143C59.5371 64.7762 58.87 61.1739 58.87 58.3692ZM61.2491 74.6076C56.8175 75.7282 53.5182 79.7568 53.5182 84.5266V88.1307L54.5182 89.1307H84.5526L85.5526 88.1307V84.5266C85.5526 79.7347 82.2606 75.6863 77.7698 74.5902L70.1855 81.7283H68.8148L61.2491 74.6076ZM75.1623 74.2979H63.8381L69.5002 79.6269L75.1623 74.2979ZM92.8361 62.6113C92.8361 58.1819 96.4511 54.5669 100.881 54.5669C105.37 54.5669 108.925 58.1869 108.925 62.6113C108.925 64.6826 108.42 67.356 107.202 69.5478C105.971 71.7612 103.927 73.6046 100.881 73.6046C97.8089 73.6046 95.7634 71.764 94.5376 69.5455C93.3255 67.3517 92.8361 64.6782 92.8361 62.6113ZM88.9589 82.6694C88.9589 78.8003 91.7983 75.6013 95.5094 75.04L95.3275 75.2401L100.827 80.2401H102.173L107.563 75.3399C110.64 76.3547 112.857 79.2505 112.857 82.6694V85.2906L111.857 86.2906H89.9589L88.9589 85.2906V82.6694ZM101.5 78.1487L97.9845 74.9526H105.016L101.5 78.1487ZM31.0197 62.6117C31.0197 58.1822 34.6347 54.5673 39.0641 54.5673C43.4936 54.5673 47.1086 58.1822 47.1086 62.6117C47.1086 64.683 46.6038 67.3563 45.3853 69.5482C44.1548 71.7616 42.1109 73.605 39.0641 73.605C35.9925 73.605 33.947 71.7644 32.7212 69.5459C31.5091 67.3521 31.0197 64.6786 31.0197 62.6117ZM35.4849 74.953L39.0002 78.1487L42.5154 74.953H35.4849ZM45.0978 75.1575C48.5065 75.958 51.0401 79.015 51.0401 82.6698V85.291L50.0401 86.291H28.1423L27.1423 85.291V82.6698C27.1423 79.1169 29.5697 76.1407 32.8315 75.2357L32.8275 75.2401L38.3275 80.2401H39.6728L45.1728 75.2401L45.0978 75.1575Z" fill="url(#paint0_linear_6_32)"/>
</g>
<path d="M105.622 94.7642C97.9478 106.487 84.7138 114.222 69.6668 114.222C58.3665 114.222 48.0936 109.872 40.419 102.68" stroke="white" stroke-width="2" stroke-miterlimit="10" stroke-linejoin="bevel"/>
<path d="M34.4365 94.7642L48.0935 97.1813L40.7211 102.922L33.5905 108.421L34.4365 94.7642Z" stroke="white" stroke-width="2" stroke-miterlimit="10" stroke-linejoin="bevel"/>
<defs>
<filter id="filter0_i_6_32" x="27.1423" y="47.7036" width="85.7145" height="41.4272" filterUnits="userSpaceOnUse" color-interpolation-filters="sRGB">
<feFlood flood-opacity="0" result="BackgroundImageFix"/>
<feBlend mode="normal" in="SourceGraphic" in2="BackgroundImageFix" result="shape"/>
<feColorMatrix in="SourceAlpha" type="matrix" values="0 0 0 0 0 0 0 0 0 0 0 0 0 0 0 0 0 0 127 0" result="hardAlpha"/>
<feOffset/>
<feGaussianBlur stdDeviation="2.06746"/>
<feComposite in2="hardAlpha" operator="arithmetic" k2="-1" k3="1"/>
<feColorMatrix type="matrix" values="0 0 0 0 1 0 0 0 0 0.870588 0 0 0 0 0.192157 0 0 0 0.5 0"/>
<feBlend mode="normal" in2="shape" result="effect1_innerShadow_6_32"/>
</filter>
<linearGradient id="paint0_linear_6_32" x1="30.3855" y1="78.774" x2="114.72" y2="72.4153" gradientUnits="userSpaceOnUse">
<stop stop-color="#F9D953"/>
<stop offset="1" stop-color="#EB5428"/>
</linearGradient>
</defs>
</svg>
