<svg width="345" height="18" viewBox="0 0 345 18" fill="none" xmlns="http://www.w3.org/2000/svg">
<g clip-path="url(#clip0_18_43)">
<path d="M24 9L67 9" stroke="white" stroke-width="1.97742" stroke-miterlimit="10"/>
<path d="M0 16.9776H2.63656V11.7045H13.1792V9.06789H2.63656V3.79477H14.4974V1.1582H0V16.9776Z" fill="white"/>
<path d="M89.7546 9.14077C88.7842 8.32051 87.3414 7.89207 85.3456 7.73095L83.0606 7.53686C81.995 7.45264 81.1052 7.178 80.6511 6.79716C80.208 6.42731 80.003 5.94394 80.0176 5.42761C80.0359 4.79045 80.3362 4.2851 80.9477 3.9006C81.6069 3.48681 82.6542 3.24146 84.0347 3.27442C85.3457 3.30738 86.2868 3.66624 86.9972 4.20454C87.6966 4.73552 88.0591 5.51184 88.0774 6.28816V6.41633H90.8788V6.34675C90.8714 4.73185 90.3405 3.40991 89.2932 2.41388C88.2495 1.41784 86.5651 0.883205 84.2874 0.824615C81.9547 0.762362 80.1604 1.16517 78.9557 2.01473C77.7289 2.87894 77.0918 3.96286 77.0515 5.50451C77.0149 6.86308 77.4689 7.83714 78.443 8.66473C79.3987 9.47767 80.7866 9.86217 82.5223 10.0123L84.9026 10.21C86.2135 10.3162 87.1766 10.6165 87.6197 11.0303C88.0591 11.4404 88.2422 11.9275 88.2239 12.5244C88.1836 14.0624 86.609 14.9156 83.6832 14.8387C82.2587 14.8021 81.0869 14.4798 80.3325 13.8756C79.5745 13.2677 79.0948 12.4328 79.0728 11.8103V11.6968H76.2715V11.7517C76.2788 13.3446 76.9233 14.6702 78.1903 15.6882C79.4427 16.6953 81.3066 17.2372 83.7344 17.2995C85.8876 17.3544 87.6673 16.9736 89.0259 16.1643C90.4174 15.333 91.1461 14.0843 91.19 12.4511C91.223 11.0852 90.7433 9.97569 89.7546 9.14077Z" fill="white"/>
</g>
<g clip-path="url(#clip1_18_43)">
<path d="M109 0.261719H124.03V2.22505H117.573V15.7938H115.457V2.22505H109V0.261719Z" fill="#FA671A" stroke="#FA671A" stroke-width="0.5"/>
<path d="M138.886 0.261719V2.22505H128.83V6.54437H134.851V8.5077H128.83V13.8087H139.759V15.772H126.736V0.261719H138.886Z" fill="#FA671A" stroke="#FA671A" stroke-width="0.5"/>
<path d="M140.981 15.7932L148.158 0.173828H149.837L157.036 15.7932H154.811L153.066 12.0411H144.798L143.075 15.7714H140.981V15.7932ZM145.671 10.1214H152.193L148.921 3.03156L145.671 10.1214Z" fill="#FA671A" stroke="#FA671A" stroke-width="0.5"/>
<path d="M162.861 0.261719L168.271 12.8488L173.681 0.261719H176.844V15.7938H174.837V2.09416L168.903 15.8811H167.442L161.552 2.18142V15.7938H159.588V0.261719H162.861Z" fill="#FA671A" stroke="#FA671A" stroke-width="0.5"/>
<path d="M197.133 8.02783C197.133 3.53399 200.383 0 204.812 0C209.349 0 211.465 2.94499 211.967 4.82106H209.764C209.218 3.73033 207.626 2.00696 204.812 2.00696C201.496 2.00696 199.336 4.77743 199.336 8.04965C199.336 11.3219 201.474 14.0923 204.812 14.0923C207.953 14.0923 209.305 12.2599 209.807 11.2564H211.967C211.509 13.0016 209.545 16.0993 204.812 16.0993C200.361 16.0557 197.133 12.5217 197.133 8.02783Z" fill="#FA671A" stroke="#FA671A" stroke-width="0.5"/>
<path d="M217.269 0.261719V6.98067H226.802V0.261719H228.918V15.7938H226.802V8.944H217.269V15.7938H215.153V0.261719H217.269Z" fill="#FA671A" stroke="#FA671A" stroke-width="0.5"/>
<path d="M231.493 15.7932L238.67 0.173828H240.349L247.548 15.7932H245.323L243.6 12.0629H235.332L233.609 15.7932H231.493ZM236.183 10.1214H242.705L239.455 3.03156L236.183 10.1214Z" fill="#FA671A" stroke="#FA671A" stroke-width="0.5"/>
<path d="M250.1 0.261719H252.217V13.8087H262.251V15.7938H250.1V0.261719Z" fill="#FA671A" stroke="#FA671A" stroke-width="0.5"/>
<path d="M264.935 0.261719H267.051V13.8087H277.085V15.7938H264.935V0.261719Z" fill="#FA671A" stroke="#FA671A" stroke-width="0.5"/>
<path d="M291.92 0.261719V2.22505H281.863V6.54437H287.884V8.5077H281.863V13.8087H292.792V15.772H279.769V0.261719H291.92Z" fill="#FA671A" stroke="#FA671A" stroke-width="0.5"/>
<path d="M298.135 0.261719L307.516 12.1508V0.261719H309.544V15.9029H308.039L297.59 2.77042V15.7938H295.561V0.261719H298.135Z" fill="#FA671A" stroke="#FA671A" stroke-width="0.5"/>
<path d="M321.194 16.0557C316.22 16.0557 312.905 12.7398 312.905 8.00602C312.905 3.4031 316.199 0 320.78 0C325.077 0 326.997 2.39962 327.564 3.9921H325.361C324.815 3.29403 323.485 1.96333 320.78 1.96333C317.267 1.96333 315.086 4.60292 315.086 8.00602C315.086 11.6491 317.551 14.0923 321.194 14.0923C323.55 14.0923 325.143 13.4379 325.972 12.8271V8.98768H319.842V7.0898H327.979V13.656C326.779 14.7904 324.663 16.0557 321.194 16.0557Z" fill="#FA671A" stroke="#FA671A" stroke-width="0.5"/>
<path d="M343.902 0.261719V2.22505H333.846V6.54437H339.866V8.5077H333.846V13.8087H344.775V15.772H331.751V0.261719H343.902Z" fill="#FA671A" stroke="#FA671A" stroke-width="0.5"/>
</g>
<defs>
<clipPath id="clip0_18_43">
<rect width="155" height="17.8041" fill="white"/>
</clipPath>
<clipPath id="clip1_18_43">
<rect width="236" height="16.6474" fill="white" transform="translate(109)"/>
</clipPath>
</defs>
</svg>
