<svg width="415" height="19" viewBox="0 0 415 19" fill="none" xmlns="http://www.w3.org/2000/svg">
<path d="M24.0879 10.0234H129.865" stroke="white" stroke-width="1.97742" stroke-miterlimit="10"/>
<path d="M0 17.5752H2.63656V12.3021H13.1792V9.66555H2.63656V4.39242H14.4974V1.75586H0V17.5752Z" fill="white"/>
<path d="M152.843 9.73843C151.873 8.91817 150.43 8.48972 148.434 8.3286L146.149 8.13452C145.084 8.0503 144.194 7.77566 143.74 7.39482C143.297 7.02497 143.092 6.5416 143.106 6.02527C143.125 5.3881 143.425 4.88276 144.036 4.49826C144.695 4.08447 145.743 3.83912 147.123 3.87208C148.434 3.90503 149.375 4.2639 150.086 4.8022C150.785 5.33317 151.148 6.10949 151.166 6.88582V7.01398H153.967V6.94441C153.96 5.32951 153.429 4.00757 152.382 3.01153C151.338 2.0155 149.654 1.48086 147.376 1.42227C145.043 1.36002 143.249 1.76283 142.044 2.61239C140.818 3.47659 140.18 4.56051 140.14 6.10217C140.103 7.46073 140.558 8.4348 141.532 9.26238C142.487 10.0753 143.875 10.4598 145.611 10.61L147.991 10.8077C149.302 10.9139 150.265 11.2142 150.708 11.628C151.148 12.0381 151.331 12.5251 151.313 13.122C151.272 14.66 149.698 15.5132 146.772 15.4363C145.347 15.3997 144.175 15.0775 143.421 14.4733C142.663 13.8654 142.183 13.0305 142.161 12.408V12.2944H139.36V12.3494C139.367 13.9423 140.012 15.2679 141.279 16.2859C142.531 17.2929 144.395 17.8349 146.823 17.8971C148.976 17.9521 150.756 17.5712 152.114 16.7619C153.506 15.9307 154.235 14.682 154.279 13.0488C154.312 11.6829 153.832 10.5733 152.843 9.73843Z" fill="white"/>
<g clip-path="url(#clip0_18_42)">
<path d="M179 2.26172H194.03V4.22505H187.573V17.7938H185.457V4.22505H179V2.26172Z" fill="#FA671A" stroke="#FA671A" stroke-width="0.5"/>
<path d="M208.886 2.26172V4.22505H198.83V8.54437H204.851V10.5077H198.83V15.8087H209.759V17.772H196.736V2.26172H208.886Z" fill="#FA671A" stroke="#FA671A" stroke-width="0.5"/>
<path d="M210.981 17.7932L218.158 2.17383H219.837L227.036 17.7932H224.811L223.066 14.0411H214.798L213.075 17.7714H210.981V17.7932ZM215.671 12.1214H222.193L218.921 5.03156L215.671 12.1214Z" fill="#FA671A" stroke="#FA671A" stroke-width="0.5"/>
<path d="M232.861 2.26172L238.271 14.8488L243.681 2.26172H246.844V17.7938H244.837V4.09416L238.903 17.8811H237.442L231.552 4.18142V17.7938H229.588V2.26172H232.861Z" fill="#FA671A" stroke="#FA671A" stroke-width="0.5"/>
<path d="M267.133 10.0278C267.133 5.53399 270.383 2 274.812 2C279.349 2 281.465 4.94499 281.967 6.82106H279.764C279.218 5.73033 277.626 4.00696 274.812 4.00696C271.496 4.00696 269.336 6.77743 269.336 10.0496C269.336 13.3219 271.474 16.0923 274.812 16.0923C277.953 16.0923 279.305 14.2599 279.807 13.2564H281.967C281.509 15.0016 279.545 18.0993 274.812 18.0993C270.361 18.0557 267.133 14.5217 267.133 10.0278Z" fill="#FA671A" stroke="#FA671A" stroke-width="0.5"/>
<path d="M287.269 2.26172V8.98067H296.802V2.26172H298.918V17.7938H296.802V10.944H287.269V17.7938H285.153V2.26172H287.269Z" fill="#FA671A" stroke="#FA671A" stroke-width="0.5"/>
<path d="M301.493 17.7932L308.67 2.17383H310.349L317.548 17.7932H315.323L313.6 14.0629H305.332L303.609 17.7932H301.493ZM306.183 12.1214H312.705L309.455 5.03156L306.183 12.1214Z" fill="#FA671A" stroke="#FA671A" stroke-width="0.5"/>
<path d="M320.1 2.26172H322.217V15.8087H332.251V17.7938H320.1V2.26172Z" fill="#FA671A" stroke="#FA671A" stroke-width="0.5"/>
<path d="M334.935 2.26172H337.051V15.8087H347.085V17.7938H334.935V2.26172Z" fill="#FA671A" stroke="#FA671A" stroke-width="0.5"/>
<path d="M361.92 2.26172V4.22505H351.863V8.54437H357.884V10.5077H351.863V15.8087H362.792V17.772H349.769V2.26172H361.92Z" fill="#FA671A" stroke="#FA671A" stroke-width="0.5"/>
<path d="M368.135 2.26172L377.516 14.1508V2.26172H379.544V17.9029H378.039L367.59 4.77042V17.7938H365.561V2.26172H368.135Z" fill="#FA671A" stroke="#FA671A" stroke-width="0.5"/>
<path d="M391.194 18.0557C386.22 18.0557 382.905 14.7398 382.905 10.006C382.905 5.4031 386.199 2 390.78 2C395.077 2 396.997 4.39962 397.564 5.9921H395.361C394.815 5.29403 393.485 3.96333 390.78 3.96333C387.267 3.96333 385.086 6.60292 385.086 10.006C385.086 13.6491 387.551 16.0923 391.194 16.0923C393.55 16.0923 395.143 15.4379 395.972 14.8271V10.9877H389.842V9.0898H397.979V15.656C396.779 16.7904 394.663 18.0557 391.194 18.0557Z" fill="#FA671A" stroke="#FA671A" stroke-width="0.5"/>
<path d="M413.902 2.26172V4.22505H403.846V8.54437H409.866V10.5077H403.846V15.8087H414.775V17.772H401.751V2.26172H413.902Z" fill="#FA671A" stroke="#FA671A" stroke-width="0.5"/>
</g>
<defs>
<clipPath id="clip0_18_42">
<rect width="236" height="16.6474" fill="white" transform="translate(179 2)"/>
</clipPath>
</defs>
</svg>
