<svg width="140" height="141" viewBox="0 0 140 141" fill="none" xmlns="http://www.w3.org/2000/svg">
<circle cx="70" cy="70.0132" r="70" fill="white" fill-opacity="0.5"/>
<g clip-path="url(#clip0_7_21)">
<path fill-rule="evenodd" clip-rule="evenodd" d="M70 19.2959C69.4148 19.2959 68.8202 19.3278 68.2391 19.4045L67.3952 20.1728L67.0763 21.5663C66.515 21.7058 65.9683 21.8832 65.4401 22.0966L64.3668 21.1618L63.2267 21.0405C62.19 21.6128 61.245 22.3118 60.391 23.1018L60.1509 24.2298L60.7118 25.5385C60.3461 25.9734 60.0054 26.4354 59.6985 26.9245L58.2775 26.7997L57.2865 27.3674C56.7896 28.4152 56.4237 29.5358 56.1981 30.7067L56.6662 31.7538L57.8912 32.4874C57.8704 32.7716 57.86 33.0572 57.86 33.3459C57.86 33.6325 57.8703 33.92 57.8909 34.2046L56.6662 34.938L56.1981 35.9851C56.4237 37.156 56.7896 38.2766 57.2865 39.3244L58.2775 39.8921L59.6975 39.7674C60.0021 40.2555 60.3405 40.7186 60.7104 41.1564L60.1509 42.462L60.3864 43.5857C61.2362 44.3817 62.1933 45.0808 63.2267 45.6513L64.3668 45.53L65.4401 44.5952C65.9683 44.8086 66.515 44.986 67.0763 45.1255L67.3952 46.519L68.2391 47.2873C68.8202 47.364 69.4148 47.3959 70 47.3959C70.5853 47.3959 71.1799 47.364 71.761 47.2873L72.6048 46.519L72.9237 45.1255C73.486 44.9857 74.0337 44.808 74.5627 44.5941L75.6264 45.5127L76.7634 45.6313C77.8 45.059 78.745 44.36 79.5991 43.57L79.8392 42.442L79.2783 41.1333C79.644 40.6984 79.9847 40.2364 80.2915 39.7473L81.7126 39.8721L82.7036 39.3044C83.2005 38.2566 83.5664 37.136 83.792 35.9651L83.3238 34.918L82.0989 34.1844C82.1196 33.9002 82.13 33.6146 82.13 33.3259C82.13 33.0393 82.1198 32.7518 82.0992 32.4672L83.3238 31.7338L83.792 30.6867C83.5664 29.5158 83.2005 28.3952 82.7036 27.3474L81.7126 26.7797L80.2926 26.9044C79.988 26.4163 79.6496 25.9532 79.2797 25.5154L79.8392 24.2098L79.6037 23.0861C78.7539 22.2901 77.7967 21.591 76.7634 21.0205L75.6233 21.1418L74.55 22.0766C74.0224 21.8634 73.4762 21.6862 72.9155 21.5467L72.6054 20.1753L71.761 19.4045C71.1799 19.3278 70.5853 19.2959 70 19.2959ZM70.0001 28.0959C67.1061 28.0959 64.7601 30.442 64.7601 33.3359C64.7601 36.2299 67.1061 38.5759 70.0001 38.5759C72.8941 38.5759 75.2401 36.2299 75.2401 33.3359C75.2401 30.442 72.8941 28.0959 70.0001 28.0959ZM62.7601 33.3359C62.7601 29.3374 66.0016 26.0959 70.0001 26.0959C73.9986 26.0959 77.2401 29.3374 77.2401 33.3359C77.2401 37.3345 73.9986 40.5759 70.0001 40.5759C66.0016 40.5759 62.7601 37.3345 62.7601 33.3359Z" fill="#FA671A"/>
<path d="M81.57 64.3161C81.57 70.7061 78.43 80.7361 70 80.7361C61.48 80.7361 58.43 70.7061 58.43 64.3161C58.43 57.9261 63.61 52.7461 70 52.7461C76.39 52.7461 81.57 57.9261 81.57 64.3161Z" stroke="#020202" stroke-width="2" stroke-miterlimit="10" stroke-linejoin="bevel"/>
<path d="M76.94 84.606H70H63.06C56.95 84.606 51.99 89.566 51.99 95.676V95.866V99.996H56.12H83.89H88.02V95.866V95.676C88.01 89.556 83.05 84.606 76.94 84.606Z" stroke="#020202" stroke-width="2" stroke-miterlimit="10" stroke-linejoin="bevel"/>
<path d="M63.05 84.606L69.88 91.626L76.94 84.606" stroke="#020202" stroke-width="2" stroke-miterlimit="10" stroke-linejoin="bevel"/>
<path d="M115.47 70.5958C115.47 75.2458 113.18 82.5558 107.05 82.5558C100.84 82.5558 98.63 75.2558 98.63 70.5958C98.63 65.9358 102.4 62.1758 107.05 62.1758C111.7 62.1758 115.47 65.9458 115.47 70.5958Z" stroke="#020202" stroke-width="2" stroke-miterlimit="10" stroke-linejoin="bevel"/>
<path d="M112.1 85.376H107.04H101.99C97.54 85.376 93.93 88.986 93.93 93.436V93.576V96.576H96.93H117.15H120.15V93.576V93.436C120.16 88.986 116.55 85.376 112.1 85.376Z" stroke="#020202" stroke-width="2" stroke-miterlimit="10" stroke-linejoin="bevel"/>
<path d="M101.99 85.376L106.96 90.486L112.1 85.376" stroke="#020202" stroke-width="2" stroke-miterlimit="10" stroke-linejoin="bevel"/>
<path d="M41.37 70.5958C41.37 75.2458 39.08 82.5558 32.95 82.5558C26.74 82.5558 24.53 75.2558 24.53 70.5958C24.53 65.9358 28.3 62.1758 32.95 62.1758C37.6 62.1758 41.37 65.9458 41.37 70.5958Z" stroke="#020202" stroke-width="2" stroke-miterlimit="10" stroke-linejoin="bevel"/>
<path d="M38.01 85.376H32.95H27.89C23.44 85.376 19.83 88.986 19.83 93.436V93.576V96.576H22.83H43.05H46.05V93.576V93.436C46.07 88.986 42.46 85.376 38.01 85.376Z" stroke="#020202" stroke-width="2" stroke-miterlimit="10" stroke-linejoin="bevel"/>
<path d="M27.89 85.376L32.86 90.486L38.01 85.376" stroke="#020202" stroke-width="2" stroke-miterlimit="10" stroke-linejoin="bevel"/>
<path d="M32.59 57.5557C35.07 51.9657 38.76 47.0357 43.34 43.0957L32.59 57.5557Z" fill="#FA671A"/>
<path d="M32.59 57.5557C35.07 51.9657 38.76 47.0357 43.34 43.0957" stroke="#FA671A" stroke-width="2" stroke-linejoin="bevel"/>
<path d="M39.0917 39.0925L50.9781 38.1937L45.8097 48.941L39.0917 39.0925Z" fill="#FA671A" stroke="#FA671A" stroke-width="2"/>
<path d="M107.4 57.5557C104.92 51.9657 101.23 47.0357 96.6501 43.0957L107.4 57.5557Z" fill="#FA671A"/>
<path d="M107.4 57.5557C104.92 51.9657 101.23 47.0357 96.6501 43.0957" stroke="#FA671A" stroke-width="2" stroke-linejoin="bevel"/>
<path d="M94.1808 48.942L89.012 38.1936L100.907 39.0925L94.1808 48.942Z" fill="#FA671A" stroke="#FA671A" stroke-width="2"/>
</g>
<defs>
<clipPath id="clip0_7_21">
<rect width="103.42" height="82.78" fill="white" transform="translate(18.29 18.7559)"/>
</clipPath>
</defs>
</svg>
