<svg width="48" height="62" viewBox="0 0 48 62" fill="none" xmlns="http://www.w3.org/2000/svg">
<path d="M38.6971 15.6083C38.6971 23.6346 34.7432 36.2079 24.1864 36.2079C13.4715 36.2079 9.67578 23.6346 9.67578 15.6083C9.67578 7.58198 16.1601 1.09766 24.1864 1.09766C32.2128 1.09766 38.6971 7.58198 38.6971 15.6083Z" stroke="white" stroke-width="1.43473" stroke-miterlimit="10" stroke-linejoin="bevel"/>
<path d="M38.6571 17.4266C32.924 17.4266 29.9981 12.168 29.9981 12.168C29.9981 12.168 25.4116 17.4266 9.71484 17.4266" stroke="white" stroke-width="1.43473" stroke-miterlimit="10" stroke-linejoin="bevel"/>
<path d="M15.4883 41.0703L24.0286 49.8874L32.8852 41.0703" stroke="#FA671A" stroke-width="1.43473" stroke-miterlimit="10" stroke-linejoin="bevel"/>
<path d="M9.71532 17.4277L9.67578 42.337" stroke="white" stroke-width="1.43473" stroke-miterlimit="10" stroke-linejoin="bevel"/>
<path d="M38.6562 17.4277V42.2975" stroke="white" stroke-width="1.43473" stroke-miterlimit="10" stroke-linejoin="bevel"/>
<path d="M9.12109 42.6914L20.271 53.8413L24.2248 49.8874L28.1391 53.8017L39.2495 42.6914" stroke="#FA671A" stroke-width="1.43473" stroke-miterlimit="10" stroke-linejoin="bevel"/>
<path d="M32.8844 41.0703H24.1859H15.4874C7.81693 41.0703 1.60938 47.2779 1.60938 54.9483V55.1856H6.78892V60.3651H41.6619V55.1856H46.8415V54.9483C46.802 47.2779 40.5549 41.0703 32.8844 41.0703Z" stroke="white" stroke-width="1.43473" stroke-miterlimit="10" stroke-linejoin="bevel"/>
</svg>
