<svg width="141" height="141" viewBox="0 0 141 141" fill="none" xmlns="http://www.w3.org/2000/svg">
<circle cx="70.4375" cy="70.0137" r="70" fill="white" fill-opacity="0.5"/>
<path d="M89.5483 29.4385H41.0283V100.288H82.9583V93.6985H89.5383L89.5483 29.4385Z" stroke="#020202" stroke-width="2" stroke-miterlimit="10" stroke-linejoin="bevel"/>
<path d="M45.2183 105.538H88.2183V98.9584H94.7983V33.6284" stroke="black" stroke-width="2" stroke-miterlimit="10" stroke-linejoin="bevel"/>
<path d="M50.2683 110.588H93.2683V104.008H99.8483V38.6782" stroke="black" stroke-width="2" stroke-miterlimit="10" stroke-linejoin="bevel"/>
<path d="M82.4283 38.8984H57.6683" stroke="#FA671A" stroke-width="2" stroke-miterlimit="10" stroke-linejoin="bevel"/>
<path d="M71.1983 44.2485H57.6683" stroke="#FA671A" stroke-width="2" stroke-miterlimit="10" stroke-linejoin="bevel"/>
<path d="M82.4283 51.7383H57.6683" stroke="#FA671A" stroke-width="2" stroke-miterlimit="10" stroke-linejoin="bevel"/>
<path d="M71.1983 57.0884H57.6683" stroke="#FA671A" stroke-width="2" stroke-miterlimit="10" stroke-linejoin="bevel"/>
<path d="M82.4283 64.5786H57.6683" stroke="#FA671A" stroke-width="2" stroke-miterlimit="10" stroke-linejoin="bevel"/>
<path d="M71.1983 69.9282H57.6683" stroke="#FA671A" stroke-width="2" stroke-miterlimit="10" stroke-linejoin="bevel"/>
<path d="M53.1383 38.8984H47.9183V44.3384H53.1383V38.8984Z" fill="#FA671A" stroke="#FA671A" stroke-width="2" stroke-miterlimit="10" stroke-linejoin="bevel"/>
<path d="M53.1383 51.7583H47.9183V57.1983H53.1383V51.7583Z" fill="#FA671A" stroke="#FA671A" stroke-width="2" stroke-miterlimit="10" stroke-linejoin="bevel"/>
<path d="M53.1383 64.6187H47.9183V70.0587H53.1383V64.6187Z" fill="#FA671A" stroke="#FA671A" stroke-width="2" stroke-miterlimit="10" stroke-linejoin="bevel"/>
<path d="M82.4283 77.4683H57.6683" stroke="#FA671A" stroke-width="2" stroke-miterlimit="10" stroke-linejoin="bevel"/>
<path d="M71.1983 82.8184H57.6683" stroke="#FA671A" stroke-width="2" stroke-miterlimit="10" stroke-linejoin="bevel"/>
<path d="M53.1383 77.4683H47.9183V82.9083H53.1383V77.4683Z" fill="#FA671A" stroke="#FA671A" stroke-width="2" stroke-miterlimit="10" stroke-linejoin="bevel"/>
</svg>
