<svg width="58" height="64" viewBox="0 0 58 64" fill="none" xmlns="http://www.w3.org/2000/svg">
<path d="M56.9189 13.9527C38.3628 4.93537 19.7986 19.2095 1.24243 10.1921C1.24243 20.9777 1.24243 31.7553 1.24243 42.5408C19.7986 51.5582 38.3628 37.2841 56.9189 46.3014L47.1245 29.4669L56.9189 13.9527Z" stroke="black" stroke-width="2" stroke-miterlimit="10" stroke-linejoin="bevel"/>
<path d="M1.24243 9V64" stroke="black" stroke-width="2" stroke-miterlimit="10" stroke-linejoin="bevel"/>
<path d="M22.8886 30.4753L25.9302 22.3461H28.3909L24.0262 33.7078H21.7833L18.4351 25.4826L15.0547 33.7078H12.8925L8.39868 22.3461H11.1418L14.1672 30.4273L17.4105 22.2981H19.6292L22.8886 30.4753Z" fill="#31FF9C"/>
<path d="M33.159 25.3145C33.159 26.0826 33.9416 26.5226 35.3212 26.6667C36.1442 26.7307 36.7573 26.7947 37.6529 26.8747C40.2991 27.0987 42.3322 27.9548 42.3322 30.3472C42.3322 32.3875 40.4443 33.8677 36.7008 33.8677C32.3684 33.8677 30.7145 32.0034 30.1901 30.3792H32.8605C33.2155 31.0993 34.2805 32.0514 36.7008 32.0514C38.7178 32.0514 39.7828 31.3953 39.7828 30.4912C39.7828 29.4111 38.8469 29.059 37.4915 28.915C36.6121 28.835 36.0151 28.787 35.1437 28.7069C32.4975 28.4829 30.6257 27.4188 30.6257 25.3785C30.6257 23.3542 32.7718 22.146 35.9263 22.146C40.0894 22.146 41.6142 23.8502 42.0256 25.2825H39.4681C39.097 24.7064 38.0885 23.9623 35.9263 23.9623C34.103 23.9543 33.159 24.4823 33.159 25.3145Z" fill="#31FF9C"/>
</svg>
