<svg width="93" height="98" viewBox="0 0 93 98" fill="none" xmlns="http://www.w3.org/2000/svg">
<path d="M57.9186 15.2652C57.9186 22.178 54.5261 33.0376 45.4385 33.0376C36.2497 33.0376 32.9583 22.178 32.9583 15.2652C32.9583 8.35253 38.5525 2.73664 45.4385 2.73664C52.3357 2.73664 57.9186 8.35253 57.9186 15.2652Z" stroke="white" stroke-width="2" stroke-miterlimit="10" stroke-linejoin="bevel"/>
<path d="M52.931 39.2399H45.4385H37.9459C31.352 39.2399 26.005 44.6077 26.005 51.2272V51.4414V55.9071H30.4533H60.4011H64.8495V51.4414V51.2272C64.872 44.6077 59.5249 39.2399 52.931 39.2399Z" stroke="white" stroke-width="2" stroke-miterlimit="10" stroke-linejoin="bevel"/>
<path d="M37.9571 39.2399L45.3149 46.8405L52.931 39.2399" stroke="white" stroke-width="2" stroke-miterlimit="10" stroke-linejoin="bevel"/>
<path d="M9.5258 80.1411V63.2934H82.8789V80.1411" stroke="#31FF9C" stroke-width="2" stroke-miterlimit="10" stroke-linejoin="bevel"/>
<path d="M74.4881 95.2606H91.2705V79.3489H74.4881V95.2606Z" stroke="#31FF9C" stroke-width="2" stroke-miterlimit="10" stroke-linejoin="bevel"/>
<path d="M38.1153 95.2606H54.8978V79.3489H38.1153V95.2606Z" stroke="#31FF9C" stroke-width="2" stroke-miterlimit="10" stroke-linejoin="bevel"/>
<path d="M1.74239 95.2606H18.5248L18.5248 79.3489H1.74239L1.74239 95.2606Z" stroke="#31FF9C" stroke-width="2" stroke-miterlimit="10" stroke-linejoin="bevel"/>
<path d="M46.5056 63.2934V80.1411" stroke="#31FF9C" stroke-width="2" stroke-miterlimit="10" stroke-linejoin="bevel"/>
</svg>
