<svg width="65" height="64" viewBox="0 0 65 64" fill="none" xmlns="http://www.w3.org/2000/svg">
<path d="M28.56 62.7546C43.6428 62.7546 55.8698 50.5752 55.8698 35.551C55.8698 20.5269 43.6428 8.34741 28.56 8.34741C13.4772 8.34741 1.25012 20.5269 1.25012 35.551C1.25012 50.5752 13.4772 62.7546 28.56 62.7546Z" stroke="black" stroke-width="2" stroke-miterlimit="10" stroke-linejoin="bevel"/>
<path d="M28.56 55.1303C39.4155 55.1303 48.2156 46.3644 48.2156 35.5511C48.2156 24.7378 39.4155 15.9719 28.56 15.9719C17.7044 15.9719 8.9043 24.7378 8.9043 35.5511C8.9043 46.3644 17.7044 55.1303 28.56 55.1303Z" stroke="black" stroke-width="2" stroke-miterlimit="10" stroke-linejoin="bevel"/>
<path d="M28.56 46.7908C34.7918 46.7908 39.8437 41.7586 39.8437 35.551C39.8437 29.3435 34.7918 24.3113 28.56 24.3113C22.3282 24.3113 17.2764 29.3435 17.2764 35.551C17.2764 41.7586 22.3282 46.7908 28.56 46.7908Z" stroke="black" stroke-width="2" stroke-miterlimit="10" stroke-linejoin="bevel"/>
<path d="M28.5601 35.5511L51.4097 13.4331" stroke="#31FF9C" stroke-width="2" stroke-linejoin="bevel"/>
<path d="M31.1652 38.2265C29.6811 39.6646 27.3099 39.6244 25.8742 38.1541C24.4305 36.6759 24.4708 34.3138 25.9468 32.8837C27.4308 31.4456 29.8021 31.4858 31.2378 32.9561C32.6815 34.4263 32.6492 36.7883 31.1652 38.2265Z" fill="#31FF9C"/>
<path d="M50.9015 12.9028L49.119 5.89706L50.345 4.71604L52.1194 11.7218L53.3373 10.5408L51.5629 3.54306L52.7808 2.36204L54.5552 9.36781L55.7731 8.18679L53.9987 1.18102L55.2165 0L56.991 7.00577L58.2411 5.80065L59.2735 6.85313L58.0233 8.06628L65 10.0346L63.7821 11.2157L56.8055 9.23927L55.5876 10.4203L62.5642 12.3887L61.3463 13.5697L54.3697 11.6013L53.1518 12.7823L60.1284 14.7507L58.9106 15.9317L51.9258 13.9633L50.9015 12.9028Z" fill="#31FF9C"/>
</svg>
