<svg width="115" height="98" viewBox="0 0 115 98" fill="none" xmlns="http://www.w3.org/2000/svg">
<path d="M105.87 56.14H101.63H97.39V48.19H93.15V64.9L90.28 62.03C89.01 60.76 86.95 60.76 85.68 62.03L84.65 63.06L93.16 71.57H106.36H110.12V56.14H105.87Z" stroke="#31FF9C" stroke-width="2" stroke-miterlimit="10" stroke-linejoin="bevel"/>
<path d="M39.81 65.1L53.43 79.12L67.52 65.1" stroke="white" stroke-width="2" stroke-miterlimit="10" stroke-linejoin="bevel"/>
<path d="M76.75 24.63C76.75 37.38 70.48 57.39 53.67 57.39C36.67 57.39 30.59 37.38 30.59 24.63C30.59 11.88 40.92 1.54 53.66 1.54C66.4 1.54 76.75 11.88 76.75 24.63Z" stroke="white" stroke-width="2" stroke-miterlimit="10" stroke-linejoin="bevel"/>
<path d="M67.52 65.1H53.66H39.81C27.61 65.1 17.72 74.99 17.72 87.19V87.58H25.95V95.81H81.36V87.58H89.59V87.19C89.6 74.99 79.71 65.1 67.52 65.1Z" stroke="white" stroke-width="2" stroke-miterlimit="10" stroke-linejoin="bevel"/>
<path d="M30.58 27.53C39.7 27.53 43.94 19.19 43.94 19.19C43.94 19.19 51.31 27.53 76.27 27.53" stroke="white" stroke-width="2" stroke-miterlimit="10" stroke-linejoin="bevel"/>
<path d="M55.36 32.07H24.08V52.23H55.36V32.07Z" stroke="#31FF9C" stroke-width="2" stroke-miterlimit="10" stroke-linejoin="bevel"/>
<path d="M83.26 19.24H61.4V52.23H83.26V19.24Z" stroke="#31FF9C" stroke-width="2" stroke-miterlimit="10" stroke-linejoin="bevel"/>
<path d="M97.5 51.82H111.95V39.54H89.55V51.82H93" stroke="#31FF9C" stroke-width="2" stroke-miterlimit="10" stroke-linejoin="bevel"/>
<path d="M18.15 32.07H3.54001V52.23H18.15V32.07Z" stroke="#31FF9C" stroke-width="2" stroke-miterlimit="10" stroke-linejoin="bevel"/>
<path d="M101.74 34.88H89.55" stroke="#31FF9C" stroke-width="2" stroke-miterlimit="10" stroke-linejoin="bevel"/>
<path d="M106.29 31.14H89.55" stroke="#31FF9C" stroke-width="2" stroke-miterlimit="10" stroke-linejoin="bevel"/>
<path d="M106.29 27.41H89.55" stroke="#31FF9C" stroke-width="2" stroke-miterlimit="10" stroke-linejoin="bevel"/>
<path d="M74.21 47.39H64.44" stroke="#31FF9C" stroke-width="2" stroke-miterlimit="10" stroke-linejoin="bevel"/>
<path d="M77.85 43.66H64.44" stroke="#31FF9C" stroke-width="2" stroke-miterlimit="10" stroke-linejoin="bevel"/>
<path d="M77.85 39.92H64.44" stroke="#31FF9C" stroke-width="2" stroke-miterlimit="10" stroke-linejoin="bevel"/>
<path d="M77.85 36.18H64.44" stroke="#31FF9C" stroke-width="2" stroke-miterlimit="10" stroke-linejoin="bevel"/>
<path d="M12.89 47.39H6.45001" stroke="#31FF9C" stroke-width="2" stroke-miterlimit="10" stroke-linejoin="bevel"/>
<path d="M15.29 43.66H6.45001" stroke="#31FF9C" stroke-width="2" stroke-miterlimit="10" stroke-linejoin="bevel"/>
<path d="M15.29 39.92H6.45001" stroke="#31FF9C" stroke-width="2" stroke-miterlimit="10" stroke-linejoin="bevel"/>
<path d="M15.29 36.18H6.45001" stroke="#31FF9C" stroke-width="2" stroke-miterlimit="10" stroke-linejoin="bevel"/>
<path d="M47.85 43.72H38.08" stroke="#31FF9C" stroke-width="2" stroke-miterlimit="10" stroke-linejoin="bevel"/>
<path d="M51.49 39.99H38.08" stroke="#31FF9C" stroke-width="2" stroke-miterlimit="10" stroke-linejoin="bevel"/>
<path d="M51.49 36.25H38.08" stroke="#31FF9C" stroke-width="2" stroke-miterlimit="10" stroke-linejoin="bevel"/>
</svg>
