<svg width="48" height="62" viewBox="0 0 48 62" fill="none" xmlns="http://www.w3.org/2000/svg">
<path fill-rule="evenodd" clip-rule="evenodd" d="M24.1862 1.8151C16.5561 1.8151 10.3929 7.97825 10.3929 15.6084C10.3929 19.5307 11.3242 24.5547 13.5409 28.5715C15.7472 32.5696 19.1704 35.4906 24.1862 35.4906C29.1205 35.4906 32.5452 32.5725 34.7735 28.5692C37.0104 24.5505 37.9795 19.5263 37.9795 15.6084C37.9795 7.97825 31.8163 1.8151 24.1862 1.8151ZM8.95819 15.6084C8.95819 7.18587 15.7637 0.380371 24.1862 0.380371C32.6087 0.380371 39.4142 7.18587 39.4142 15.6084C39.4142 19.7168 38.4064 24.9924 36.0271 29.2669C33.6393 33.5569 29.8088 36.9253 24.1862 36.9253C18.4871 36.9253 14.6549 33.5597 12.2847 29.2647C9.92472 24.9882 8.95819 19.7124 8.95819 15.6084Z" fill="white"/>
<path fill-rule="evenodd" clip-rule="evenodd" d="M29.4596 11.6972L30.6248 11.8197C30.6253 11.8193 30.6253 11.8193 30.6253 11.8193L30.6254 11.8194L30.6255 11.8198L30.6294 11.8265C30.6335 11.8336 30.6404 11.8455 30.65 11.8618C30.6694 11.8944 30.6998 11.9448 30.7414 12.0103C30.8245 12.1413 30.9517 12.3327 31.1226 12.5642C31.4651 13.0282 31.9789 13.648 32.6604 14.2667C34.0251 15.5057 36.0256 16.7098 38.6576 16.7098V18.1445C35.5565 18.1445 33.2275 16.7194 31.696 15.329C30.9295 14.633 30.3535 13.9382 29.9682 13.4162C29.9296 13.3639 29.8929 13.3133 29.858 13.2645C29.7416 13.3583 29.6092 13.4605 29.4598 13.5696C28.7395 14.0954 27.6275 14.7799 26.0227 15.4586C22.8124 16.8162 17.6443 18.1445 9.71539 18.1445V16.7098C17.4832 16.7098 22.4568 15.4088 25.4639 14.1371C26.9679 13.5011 27.9835 12.871 28.6138 12.4108C28.9291 12.1806 29.1485 11.9925 29.2849 11.8669C29.3531 11.8041 29.4005 11.7568 29.4288 11.7277C29.443 11.7131 29.4524 11.7031 29.4572 11.6978L29.4603 11.6944L29.4594 11.6955L29.4588 11.6962C29.4587 11.6962 29.4587 11.6963 29.4596 11.6972Z" fill="white"/>
<path fill-rule="evenodd" clip-rule="evenodd" d="M33.391 41.5795L24.5343 50.3966L23.5129 50.3873L14.9726 41.5702L16.0032 40.572L24.0375 48.8667L32.3787 40.5627L33.391 41.5795Z" fill="url(#paint0_linear)"/>
<path fill-rule="evenodd" clip-rule="evenodd" d="M8.95819 42.3353L8.99773 17.426L10.4325 17.4282L10.3929 42.3375L8.95819 42.3353Z" fill="white"/>
<path fill-rule="evenodd" clip-rule="evenodd" d="M37.9402 42.2968V17.4271H39.375V42.2968H37.9402Z" fill="white"/>
<path fill-rule="evenodd" clip-rule="evenodd" d="M39.7581 43.1995L28.6478 54.3098L27.6333 54.3098L24.2262 50.9028L20.7796 54.3494H19.7651L8.61523 43.1995L9.62974 42.185L20.2724 52.8276L23.719 49.381H24.7335L28.1405 52.7881L38.7436 42.185L39.7581 43.1995Z" fill="url(#paint1_linear)"/>
<path fill-rule="evenodd" clip-rule="evenodd" d="M0.892395 54.9492C0.892395 46.8825 7.42112 40.3538 15.4878 40.3538H32.8848C40.9495 40.3538 47.5177 46.8797 47.5592 54.9455L47.5593 54.9492L47.5592 55.1864L46.8419 55.9038H42.3797V60.3659L41.6623 61.0833H6.78931L6.07194 60.3659V55.9038H1.60976L0.892395 55.1864V54.9492ZM2.3357 54.469H6.78931L7.50668 55.1864V59.6486H40.945V55.1864L41.6623 54.469H46.1133C45.8225 47.4183 39.999 41.7885 32.8848 41.7885H15.4878C8.37424 41.7885 2.58795 47.4176 2.3357 54.469Z" fill="white"/>
<defs>
<linearGradient id="paint0_linear" x1="24.1818" y1="40.5627" x2="24.1818" y2="50.3966" gradientUnits="userSpaceOnUse">
<stop stop-color="#45FF27"/>
<stop offset="1" stop-color="#17FFB9"/>
</linearGradient>
<linearGradient id="paint1_linear" x1="24.1867" y1="42.185" x2="24.1867" y2="54.3494" gradientUnits="userSpaceOnUse">
<stop stop-color="#45FF27"/>
<stop offset="1" stop-color="#17FFB9"/>
</linearGradient>
</defs>
</svg>
