<svg width="117" height="98" viewBox="0 0 117 98" fill="none" xmlns="http://www.w3.org/2000/svg">
<g clip-path="url(#clip0)">
<path d="M70.515 26.9314C70.515 34.084 66.9921 45.3204 57.5551 45.3204C48.0132 45.3204 44.5953 34.084 44.5953 26.9314C44.5953 19.7788 50.4045 13.9681 57.5551 13.9681C64.7058 13.9681 70.515 19.7672 70.515 26.9314Z" stroke="white" stroke-width="2" stroke-miterlimit="10" stroke-linejoin="bevel"/>
<path d="M65.3357 49.6493H57.5551H49.7746C42.9272 49.6493 37.3747 55.2034 37.3747 62.0526V62.2743V66.8949H41.994H73.0929H77.7123V62.2743V62.0526C77.7239 55.2034 72.183 49.6493 65.3357 49.6493Z" stroke="white" stroke-width="2" stroke-miterlimit="10" stroke-linejoin="bevel"/>
<path d="M49.7862 49.6493L57.4268 57.5253L65.3357 49.6493" stroke="white" stroke-width="2" stroke-miterlimit="10" stroke-linejoin="bevel"/>
<path d="M17.0417 81.3752C18.2666 81.2118 19.3631 80.7451 20.2846 79.9517L21.5911 78.8549C23.4225 80.9435 25.4289 82.8804 27.5986 84.6423C27.2953 84.6073 26.992 84.5723 26.7004 84.5606C26.4554 84.5489 26.2221 84.5373 25.9888 84.5373C23.5042 84.5373 21.4744 85.3074 20.1213 86.7542L18.3366 88.6795C17.9866 89.0528 18.0099 89.6363 18.3832 89.9863C19.6197 91.1298 21.0545 92.0749 22.536 92.705C23.9474 93.3117 25.4172 93.6501 26.7937 93.6734C26.8753 93.6734 26.957 93.6734 27.027 93.6734C29.7216 93.6734 31.9496 92.5183 33.1395 90.5114L34.0143 89.0528C37.7238 91.1881 41.7716 92.8567 46.0643 93.9651C46.1459 93.9885 46.2159 94.0001 46.2976 94.0001C46.7059 94.0001 47.0791 93.7201 47.1841 93.3117C47.3124 92.8217 47.0208 92.3199 46.5192 92.1916C42.3898 91.1181 38.517 89.5196 34.9592 87.4776L35.8457 86.0075C37.2222 83.6972 37.0356 81.1885 36.639 79.4966C36.114 77.303 34.9592 75.3311 33.3028 73.8026C33.1278 73.6392 32.8828 73.5459 32.6379 73.5575C32.3929 73.5692 32.1596 73.6742 31.9963 73.8492L30.2232 75.7745C28.6018 77.513 27.9719 79.8817 28.4968 82.2853C28.5668 82.6003 28.6484 82.9154 28.7651 83.2188C26.677 81.5269 24.7523 79.6716 22.9909 77.6647L24.2974 76.5562C26.3504 74.8177 26.9803 72.379 27.1553 70.6522C27.3653 68.4002 26.9103 66.1716 25.8372 64.188C25.7205 63.978 25.5222 63.8146 25.2889 63.7446C25.0556 63.6746 24.799 63.6979 24.589 63.8146L22.2793 65.0631C21.2295 65.6348 20.3779 66.4049 19.7364 67.3501C19.0948 68.3069 18.6865 69.4503 18.5465 70.6522C18.5115 70.9672 18.4882 71.2822 18.4882 71.5973C17.0767 69.3453 15.8519 66.965 14.8371 64.4914L16.4118 63.8729C18.9081 62.8928 20.3079 60.8042 21.0312 59.2174C21.9644 57.1638 22.256 54.9001 21.8944 52.6948C21.8594 52.4498 21.7194 52.2398 21.5211 52.0998C21.3228 51.9598 21.0778 51.9014 20.8329 51.9364L18.2432 52.3681C17.0651 52.5665 16.0036 53.0099 15.0937 53.71C14.1722 54.3984 13.4139 55.3435 12.889 56.4403C12.7607 56.7204 12.6324 57.0121 12.5391 57.3038C11.9441 54.7368 11.5592 52.0998 11.3959 49.4044L13.099 49.3344C15.7936 49.2177 17.7766 47.6892 18.9781 46.4174C20.5179 44.7722 21.5328 42.7186 21.9061 40.5016C21.941 40.2566 21.8944 40.0116 21.7427 39.8132C21.6028 39.6148 21.3811 39.4748 21.1478 39.4398L18.5582 39.0081C17.3917 38.8097 16.2252 38.9031 15.1403 39.2531C14.0438 39.6148 13.0173 40.2683 12.1774 41.1317C11.9558 41.3534 11.7458 41.5984 11.5592 41.8435C11.8275 39.1714 12.3174 36.5461 13.0173 33.9791L14.6737 34.5042C15.362 34.7025 16.0735 34.8076 16.7968 34.8076C18.2199 34.8076 19.7364 34.4108 21.1712 33.6641C23.1659 32.6139 24.7873 31.0154 25.8605 29.0435C25.9771 28.8335 26.0005 28.5768 25.9305 28.3434C25.8605 28.11 25.6972 27.9117 25.4872 27.795L23.1775 26.5465C22.1277 25.9748 21.0195 25.6831 19.8647 25.6714H19.7714C18.6399 25.6714 17.52 25.9398 16.4468 26.4765C16.1669 26.6165 15.8869 26.7799 15.6069 26.9549C16.7268 24.5396 18.0449 22.2176 19.5847 20.0007L20.9729 20.9924C22.3027 21.9376 23.9591 22.4393 25.7788 22.4393C26.3038 22.4393 26.852 22.3926 27.4003 22.3109C29.6283 21.9609 31.693 20.9691 33.3378 19.4406C33.5127 19.2772 33.6294 19.0439 33.6294 18.7988C33.641 18.5538 33.5477 18.3204 33.3844 18.1337L31.5997 16.1968C30.7948 15.3217 29.8383 14.68 28.7534 14.2949C27.6686 13.9099 26.4671 13.7932 25.2539 13.9565C24.2974 14.0849 23.3292 14.3999 22.4193 14.855C22.7576 13.8982 23.0026 12.9297 23.1425 11.9613C23.5275 9.16093 22.9559 6.83896 21.4861 5.22876L19.7014 3.29184C19.5497 3.11682 19.3281 3.01181 19.0831 3.00014C18.8382 2.98847 18.6049 3.08182 18.4182 3.24517C17.1817 4.38865 16.1319 5.74216 15.3853 7.16567C14.6737 8.51918 14.2188 9.96603 14.0672 11.3312C13.9272 12.6847 14.0788 13.9915 14.5221 15.1234C14.977 16.2785 15.7119 17.212 16.6918 17.9237L18.0799 18.9272C16.4818 21.2375 15.0937 23.6645 13.9389 26.1731C13.9039 25.8697 13.8572 25.5664 13.7989 25.2747C13.2623 22.4976 11.9675 20.479 10.0544 19.4289L7.7564 18.1688C7.31313 17.9237 6.75321 18.0871 6.50824 18.5421C5.70336 20.024 5.14344 21.6575 4.89847 23.2444C4.66517 24.7613 4.70017 26.2781 5.00346 27.62C5.30675 28.9501 5.87833 30.1403 6.67155 31.0504C7.47644 31.9955 8.46797 32.6489 9.63447 32.9873L11.2676 33.4774C10.521 36.1494 10.0077 38.9031 9.73945 41.7034C9.59947 41.4234 9.45949 41.1434 9.30785 40.875C7.89638 38.4247 6.00665 36.9428 3.86029 36.5811L1.27066 36.1494C0.769062 36.0677 0.290797 36.4061 0.209142 36.9078C-0.0708181 38.5764 -0.0591531 40.2916 0.220807 41.8668C0.489102 43.372 1.01403 44.7955 1.74892 45.9623C3.17205 48.2376 5.30675 49.5444 7.60476 49.5444C7.69808 49.5444 7.77973 49.5444 7.86139 49.5444L9.57614 49.4744C9.73945 52.2981 10.1477 55.0752 10.7776 57.7588C10.556 57.5371 10.3227 57.3154 10.0894 57.1054C7.97804 55.2618 5.70336 54.4451 3.54533 54.7951L0.955702 55.2268C0.454107 55.3085 0.115822 55.7869 0.197477 56.2886C0.477437 57.9572 1.02569 59.5791 1.80725 60.9909C2.55381 62.3328 3.51034 63.5112 4.58352 64.3863C5.64503 65.2498 6.8232 65.8332 8.00137 66.0782C8.43297 66.1716 8.86458 66.2066 9.29618 66.2066C10.0661 66.2066 10.8126 66.0666 11.5359 65.7865L13.1456 65.1681C14.2071 67.7584 15.4903 70.2554 16.9601 72.6124C16.6801 72.4724 16.4002 72.344 16.1085 72.2274C13.5189 71.1772 11.0809 71.1539 9.16787 72.1807L6.8582 73.4292C6.41493 73.6742 6.23995 74.2343 6.48492 74.6777C7.2898 76.1595 8.33965 77.513 9.54115 78.5865C10.6843 79.6133 11.9675 80.4067 13.2623 80.8851C14.2421 81.2468 15.2103 81.4219 16.1552 81.4219C16.4585 81.4335 16.7618 81.4102 17.0417 81.3752ZM31.5763 89.5662C30.7248 91.0014 29.0684 91.8299 27.0387 91.8299C26.9803 91.8299 26.9103 91.8299 26.8404 91.8299C25.6972 91.8065 24.4607 91.5148 23.2592 91.0014C22.2443 90.5697 21.2411 89.963 20.3313 89.2279L21.4628 88.0027C22.7109 86.6609 24.6123 86.3808 25.9771 86.3808C26.1754 86.3808 26.3854 86.3925 26.5837 86.4042C28.5084 86.5209 30.5148 87.1159 32.4279 88.1311L31.5763 89.5662ZM31.588 77.0346L32.7195 75.8095C33.7577 76.9763 34.4926 78.3765 34.8659 79.9167C35.1808 81.2818 35.3441 83.2771 34.2826 85.0623L33.4311 86.4859C32.7195 85.9608 32.1013 85.3424 31.5997 84.6656C30.9698 83.8138 30.5265 82.8571 30.3165 81.9003C29.9199 80.08 30.3748 78.3531 31.588 77.0346ZM14.5688 57.2454C14.9654 56.417 15.537 55.7052 16.2252 55.1802C16.9018 54.6668 17.6833 54.3401 18.5699 54.1884L20.203 53.92C20.3079 55.4719 20.028 57.0354 19.3747 58.4706C18.7915 59.7424 17.695 61.411 15.7586 62.1694L14.2071 62.7761C13.9738 61.9244 13.8572 61.0609 13.8805 60.2091C13.9155 59.1473 14.1488 58.1205 14.5688 57.2454ZM8.07136 29.8603C7.47644 29.1718 7.04484 28.25 6.79987 27.2116C6.54324 26.0914 6.51991 24.8196 6.71822 23.5244C6.89319 22.4276 7.23148 21.3075 7.72141 20.2457L9.1912 21.0391C10.9759 22.0192 11.7108 24.0612 12.0141 25.613C12.3757 27.5033 12.2941 29.6036 11.7808 31.7155L10.1594 31.2371C9.34284 30.9921 8.64294 30.5253 8.07136 29.8603ZM20.3896 70.8855C20.4946 69.9637 20.8095 69.112 21.2878 68.4002C21.7544 67.7001 22.396 67.1284 23.1775 66.6966L24.6357 65.9032C25.2422 67.3384 25.4872 68.9136 25.3356 70.4771C25.1956 71.8656 24.7057 73.8142 23.1309 75.1561L21.8594 76.2295C21.3578 75.5061 20.9729 74.7127 20.7162 73.9076C20.3896 72.8924 20.273 71.854 20.3896 70.8855ZM13.5072 42.4502C14.1605 41.7851 14.907 41.3067 15.7353 41.0267C16.2485 40.8517 16.7968 40.77 17.3567 40.77C17.66 40.77 17.9633 40.7933 18.2666 40.8517L19.8997 41.12C19.4914 42.6252 18.7215 44.0137 17.6483 45.1689C16.6918 46.184 15.1054 47.4092 13.029 47.5025L11.3842 47.5725C11.4425 46.6974 11.6175 45.834 11.9091 45.0405C12.2708 44.0371 12.819 43.1386 13.5072 42.4502ZM17.275 28.11C18.0916 27.7016 18.9315 27.5033 19.7714 27.5033H19.8413C20.6929 27.515 21.5094 27.7366 22.291 28.1567L23.7491 28.9501C22.8742 30.2453 21.6961 31.2954 20.3079 32.0305C18.5582 32.9406 16.7385 33.1973 15.187 32.7306L13.6006 32.2522C13.9389 31.4355 14.3821 30.677 14.9187 30.0236C15.5953 29.2185 16.4118 28.5534 17.275 28.11ZM25.5222 15.7884C26.4437 15.6601 27.3419 15.7534 28.1585 16.0451C28.9517 16.3252 29.6633 16.8036 30.2699 17.457L31.4014 18.6822C30.1532 19.6273 28.6951 20.2457 27.132 20.4907C26.677 20.5607 26.2338 20.5957 25.7905 20.5957C24.3324 20.5957 23.0842 20.2223 22.0577 19.4989L20.7046 18.5305C21.2878 17.8654 21.9527 17.2936 22.6759 16.8502C23.5625 16.2785 24.554 15.9168 25.5222 15.7884ZM16.2369 14.4466C15.8986 13.5948 15.7819 12.5914 15.8986 11.5296C16.0152 10.3861 16.4002 9.1726 17.0068 8.02912C17.52 7.04899 18.2082 6.10387 19.0131 5.25209L20.1446 6.47725C21.5211 7.98244 21.5444 10.1527 21.3345 11.7163C21.0662 13.6298 20.3079 15.5784 19.1414 17.4103L17.7766 16.4302C17.0767 15.9285 16.5635 15.2634 16.2369 14.4466ZM7.7914 47.7125C6.06497 47.7826 4.43187 46.7908 3.31203 45.0055C2.70545 44.0254 2.26218 42.8352 2.02888 41.5634C1.83058 40.4666 1.79558 39.2998 1.90057 38.1446L3.54533 38.413C5.55171 38.7514 6.91652 40.4549 7.69808 41.8084C8.65461 43.4887 9.26119 45.4839 9.45949 47.6425L7.7914 47.7125ZM10.871 64.0713C10.0777 64.3747 9.22619 64.4447 8.37465 64.2697C7.48811 64.083 6.57823 63.6279 5.75002 62.9512C4.86348 62.2277 4.05859 61.2359 3.42868 60.0925C2.89209 59.124 2.47215 58.0272 2.20386 56.8837L3.84862 56.6154C4.07026 56.5803 4.30356 56.557 4.53686 56.557C6.29828 56.557 7.87305 57.6071 8.87624 58.4939C10.3227 59.7658 11.5475 61.4693 12.4341 63.4529L10.871 64.0713ZM13.9039 79.1582C12.8307 78.7615 11.7458 78.0964 10.7776 77.2213C9.94942 76.4746 9.20286 75.5878 8.57295 74.596L10.0427 73.8026C11.4659 73.0441 13.3439 73.1025 15.4086 73.9426C17.1934 74.6777 18.8965 75.8912 20.3896 77.4664L19.1065 78.5515C18.4532 79.0999 17.6833 79.4383 16.8084 79.555C15.9102 79.66 14.907 79.5316 13.9039 79.1582Z" fill="#31FF9C"/>
<path d="M109.138 49.556C109.231 49.556 109.313 49.556 109.406 49.556C111.704 49.556 113.839 48.2491 115.262 45.9738C115.997 44.807 116.522 43.3835 116.79 41.8783C117.07 40.2914 117.082 38.5762 116.802 36.9193C116.72 36.4176 116.242 36.0792 115.74 36.1609L113.139 36.5926C110.992 36.9544 109.114 38.4479 107.691 40.8982C107.54 41.1666 107.4 41.4349 107.26 41.715C106.98 38.9146 106.466 36.1609 105.732 33.4889L107.365 32.9988C108.531 32.6488 109.523 31.9954 110.328 31.0619C111.109 30.1401 111.681 28.9617 111.996 27.6315C112.299 26.2896 112.346 24.7728 112.101 23.2559C111.856 21.6691 111.296 20.0472 110.491 18.5537C110.246 18.1103 109.686 17.9352 109.243 18.1803L106.933 19.4404C105.02 20.4906 103.725 22.5092 103.189 25.2862C103.13 25.5779 103.084 25.8813 103.049 26.1846C101.882 23.676 100.506 21.249 98.9076 18.9387L100.296 17.9352C101.287 17.2235 102.01 16.29 102.465 15.1349C102.909 14.0147 103.072 12.7079 102.92 11.3427C102.78 9.96589 102.325 8.5307 101.602 7.1772C100.856 5.75368 99.8058 4.40018 98.5693 3.2567C98.3943 3.08167 98.161 2.98833 97.916 3C97.6711 3.01166 97.4378 3.11668 97.2744 3.2917L95.4897 5.22862C94.0199 6.83882 93.4483 9.16079 93.8333 11.9611C93.9733 12.9179 94.2182 13.8864 94.5565 14.8548C93.6466 14.3881 92.6784 14.0848 91.7219 13.9564C90.5087 13.793 89.3189 13.9097 88.2224 14.2948C87.1376 14.6798 86.181 15.3216 85.3761 16.1967L83.5914 18.1336C83.4281 18.3086 83.3348 18.5537 83.3464 18.7987C83.3581 19.0437 83.4631 19.2771 83.6381 19.4404C85.2945 20.969 87.3475 21.9608 89.5872 22.3108C90.1355 22.3925 90.6721 22.4392 91.197 22.4392C93.0167 22.4392 94.6732 21.9374 96.003 20.9923L97.3794 20.0005C98.9076 22.2175 100.237 24.5511 101.357 26.9547C101.089 26.7797 100.809 26.6164 100.517 26.4763C99.4441 25.9396 98.3243 25.6712 97.1928 25.6712H97.0995C95.9446 25.6829 94.8365 25.9863 93.7866 26.5463L91.4769 27.7948C91.267 27.9115 91.1037 28.1099 91.0337 28.3432C90.9637 28.5766 90.987 28.8333 91.1037 29.0433C92.1768 31.0153 93.7983 32.6138 95.793 33.6639C97.2278 34.4107 98.7326 34.8074 100.156 34.8074C100.891 34.8074 101.602 34.7024 102.29 34.504L103.923 34.014C104.635 36.5693 105.125 39.1946 105.382 41.8783C105.183 41.6216 104.973 41.3882 104.763 41.1666C103.912 40.3031 102.885 39.6497 101.8 39.288C100.716 38.9263 99.5491 38.8446 98.3826 39.0429L95.793 39.4747C95.548 39.5097 95.3381 39.6497 95.1981 39.8481C95.0581 40.0464 94.9998 40.2914 95.0348 40.5365C95.408 42.7534 96.4112 44.7954 97.9627 46.4522C99.1525 47.7124 101.147 49.2409 103.842 49.3576L105.533 49.4276C105.37 52.123 104.985 54.76 104.39 57.327C104.285 57.0353 104.168 56.7435 104.04 56.4635C103.515 55.3667 102.757 54.4216 101.835 53.7332C100.914 53.0447 99.8641 52.5897 98.6859 52.3913L96.0963 51.9596C95.8513 51.9246 95.6064 51.9829 95.408 52.123C95.2097 52.263 95.0814 52.4847 95.0348 52.718C94.6732 54.935 94.9648 57.1869 95.898 59.2522C96.6212 60.8274 98.0093 62.916 100.517 63.9078L102.092 64.5145C101.077 66.9882 99.8524 69.3685 98.4409 71.6205C98.4409 71.3054 98.4176 70.9904 98.3826 70.6753C98.2426 69.4735 97.8344 68.33 97.1928 67.3732C96.5512 66.4165 95.6997 65.6464 94.6498 65.0746L92.3402 63.8261C92.1302 63.7094 91.8735 63.6861 91.6402 63.7561C91.4069 63.8261 91.2086 63.9895 91.092 64.1995C90.0305 66.1714 89.5755 68.4117 89.7738 70.6637C89.9488 72.3906 90.5787 74.8175 92.6318 76.5678L93.9383 77.6762C92.1768 79.6832 90.2405 81.5501 88.1641 83.2303C88.2691 82.9152 88.3624 82.6119 88.4207 82.2968C88.9456 79.9049 88.3157 77.5362 86.6943 75.7977L84.9095 73.8724C84.7462 73.6974 84.5129 73.5924 84.268 73.5807C84.023 73.569 83.7897 73.6624 83.6031 73.8257C81.9466 75.3543 80.8035 77.3262 80.2669 79.5198C79.8703 81.2117 79.6836 83.7087 81.0601 86.0306L81.935 87.5008C78.3655 89.5428 74.4927 91.1413 70.3749 92.2148C69.885 92.3431 69.5817 92.8448 69.71 93.3349C69.815 93.755 70.1883 94.0233 70.5966 94.0233C70.6782 94.0233 70.7482 94.0117 70.8299 93.9883C75.1343 92.8682 79.1704 91.1996 82.8798 89.076L83.8364 90.5112C85.0262 92.5181 87.2659 93.6733 89.9488 93.6733C90.0305 93.6733 90.1005 93.6733 90.1821 93.6733C91.5586 93.6383 93.0401 93.2999 94.4399 92.7048C95.9213 92.0747 97.3561 91.1413 98.5926 89.9862C98.9659 89.6361 98.9892 89.0644 98.6393 88.6793L96.8545 86.7424C95.513 85.2955 93.4833 84.5255 90.9987 84.5255C90.7654 84.5255 90.5204 84.5371 90.2754 84.5488C89.9722 84.5721 89.6805 84.5955 89.3772 84.6305C91.5469 82.8686 93.5533 80.9317 95.3847 78.8431L96.6912 79.9399C97.6244 80.7216 98.7092 81.2 99.9341 81.3634C100.226 81.3984 100.529 81.4217 100.821 81.4217C101.765 81.4217 102.734 81.235 103.714 80.885C105.008 80.4066 106.291 79.6132 107.435 78.5864C108.624 77.5129 109.686 76.1594 110.491 74.6775C110.736 74.2341 110.561 73.6741 110.118 73.429L107.808 72.1805C105.907 71.1537 103.469 71.1771 100.867 72.2389C100.587 72.3556 100.296 72.4839 100.016 72.6239C101.497 70.2669 102.769 67.7816 103.83 65.1796L105.44 65.798C106.163 66.0781 106.91 66.2181 107.68 66.2181C108.111 66.2181 108.543 66.1714 108.974 66.0897C110.153 65.8447 111.342 65.2613 112.392 64.3979C113.465 63.5228 114.422 62.3559 115.169 61.0024C115.95 59.5906 116.51 57.9687 116.778 56.3002C116.86 55.7984 116.522 55.32 116.02 55.2384L113.419 54.8066C111.284 54.4683 108.998 55.2734 106.875 57.1286C106.641 57.3386 106.408 57.5487 106.187 57.7703C106.816 55.075 107.213 52.3096 107.388 49.486L109.138 49.556ZM104.997 25.6129C105.3 24.061 106.035 22.0191 107.808 21.039L109.278 20.2455C109.768 21.3073 110.106 22.4275 110.281 23.5243C110.479 24.8078 110.456 26.0796 110.199 27.1998C109.966 28.2382 109.523 29.16 108.928 29.8484C108.356 30.5135 107.656 30.9803 106.84 31.2253L105.23 31.7037C104.717 29.6034 104.635 27.5148 104.997 25.6129ZM97.6244 58.4821C96.9712 57.0469 96.6912 55.4834 96.7962 53.9315L98.4409 54.1999C99.3158 54.3399 100.109 54.6783 100.786 55.1917C101.474 55.7051 102.045 56.4168 102.442 57.2569C102.862 58.1321 103.095 59.1589 103.13 60.2207C103.154 61.0608 103.037 61.9359 102.804 62.7877L101.264 62.1926C99.3042 61.4108 98.2077 59.7423 97.6244 58.4821ZM90.4038 86.3924C90.6137 86.3807 90.812 86.369 91.022 86.369C92.3868 86.369 94.2882 86.6491 95.5364 87.9909L96.6679 89.2277C95.758 89.9628 94.7548 90.5696 93.74 91.0013C92.5385 91.5147 91.302 91.7947 90.1588 91.8297C88.0474 91.8881 86.3093 91.048 85.4345 89.5661L84.5713 88.1192C86.4727 87.1041 88.479 86.509 90.4038 86.3924ZM82.1333 79.9282C82.5066 78.388 83.2414 76.9878 84.2796 75.8093L85.4111 77.0345C86.636 78.3413 87.0792 80.0682 86.6826 81.9001C86.4727 82.8569 86.0294 83.8137 85.3995 84.6655C84.8979 85.3422 84.2796 85.9606 83.5681 86.4857L82.7165 85.0622C81.655 83.277 81.8183 81.2817 82.1333 79.9282ZM101.579 73.9308C103.655 73.0906 105.533 73.0323 106.945 73.7907L108.415 74.5842C107.785 75.576 107.038 76.4627 106.21 77.2095C105.242 78.0846 104.157 78.7497 103.084 79.1464C102.08 79.5198 101.077 79.6482 100.167 79.5315C99.2925 79.4148 98.5226 79.0881 97.8694 78.528L96.5862 77.4429C98.1027 75.8793 99.8058 74.6658 101.579 73.9308ZM109.289 41.8083C110.083 40.4431 111.447 38.7396 113.442 38.4012L115.099 38.1328C115.215 39.2997 115.169 40.4665 114.97 41.5516C114.737 42.8351 114.305 44.0253 113.699 44.9937C112.626 46.7206 111.051 47.7124 109.406 47.7124C109.348 47.7124 109.278 47.7124 109.219 47.7124L107.54 47.6424C107.726 45.4838 108.333 43.4768 109.289 41.8083ZM96.8545 6.47711L97.986 5.24028C98.7909 6.09206 99.4675 7.03718 99.9924 8.01731C100.599 9.17245 100.984 10.3743 101.101 11.5178C101.217 12.5796 101.089 13.5947 100.762 14.4348C100.436 15.2516 99.9224 15.9167 99.2342 16.4184L97.8694 17.3985C96.7029 15.5666 95.9446 13.618 95.6763 11.7161C95.4547 10.1526 95.478 7.9823 96.8545 6.47711ZM94.9648 19.4871C93.9383 20.2222 92.6784 20.5839 91.2203 20.5839C90.7887 20.5839 90.3338 20.5489 89.8905 20.4789C88.3274 20.2339 86.8693 19.6155 85.6211 18.6703L86.7526 17.4452C87.3475 16.7918 88.0591 16.3134 88.864 16.0333C89.6805 15.7416 90.5787 15.66 91.5003 15.7766C92.4685 15.905 93.46 16.2667 94.3582 16.8268C95.0698 17.2702 95.7463 17.8419 96.3296 18.507L94.9648 19.4871ZM101.812 32.7421C101.299 32.8938 100.762 32.9755 100.202 32.9755C99.0709 32.9755 97.8577 32.6488 96.6912 32.0421C95.2914 31.307 94.1132 30.2452 93.2384 28.9617L94.6965 28.1682C95.478 27.7482 96.3063 27.5265 97.1461 27.5148H97.2161C98.0677 27.5148 98.9076 27.7248 99.7124 28.1216C100.587 28.5533 101.404 29.2184 102.069 30.0468C102.605 30.7002 103.049 31.4586 103.387 32.2754L101.812 32.7421ZM99.3508 45.1804C98.266 44.0253 97.4961 42.6367 97.0878 41.1199L98.7326 40.8515C99.6075 40.7115 100.471 40.7698 101.264 41.0382C102.08 41.3066 102.85 41.7966 103.492 42.4617C104.168 43.1618 104.728 44.0486 105.102 45.0521C105.393 45.8455 105.568 46.7089 105.627 47.584L103.97 47.514C101.882 47.4207 100.307 46.1839 99.3508 45.1804ZM91.6636 70.4886C91.5236 68.9134 91.7569 67.3499 92.3635 65.9031L93.8216 66.6965C94.6032 67.1165 95.2331 67.6883 95.7113 68.4C96.1896 69.1118 96.4929 69.9752 96.5979 70.8854C96.7145 71.8538 96.5979 72.904 96.2713 73.9191C96.0146 74.7242 95.6297 75.506 95.1281 76.241L93.8566 75.1676C92.3052 73.8141 91.8036 71.8655 91.6636 70.4886ZM108.123 58.5171C109.138 57.6303 110.713 56.5802 112.474 56.5802C112.707 56.5802 112.941 56.6035 113.162 56.6385L114.819 56.9069C114.55 58.0504 114.13 59.1355 113.594 60.1156C112.964 61.2591 112.159 62.2393 111.272 62.9744C110.444 63.6511 109.534 64.1062 108.648 64.2928C108.345 64.3512 108.03 64.3862 107.726 64.3862C107.19 64.3862 106.665 64.2812 106.152 64.0945L104.588 63.4877C105.463 61.4808 106.676 59.7889 108.123 58.5171Z" fill="#31FF9C"/>
</g>
<defs>
<clipPath id="clip0">
<rect width="117" height="98" fill="white"/>
</clipPath>
</defs>
</svg>
