<svg width="100" height="64" viewBox="0 0 100 64" fill="none" xmlns="http://www.w3.org/2000/svg">
<path d="M23.6691 20.6868C23.6691 25.5686 21.2862 33.2365 14.8948 33.2365C8.43161 33.2365 6.12048 25.5686 6.12048 20.6868C6.12048 15.8051 10.0494 11.8467 14.8948 11.8467C19.7402 11.8467 23.6691 15.8051 23.6691 20.6868Z" stroke="black" stroke-width="2" stroke-miterlimit="10" stroke-linejoin="bevel"/>
<path d="M50.4224 42.7751L41.1062 51.8561L28.5544 45.3846V52.7634H1.22729V45.3846V45.2321C1.22729 40.5591 4.98885 36.7693 9.62704 36.7693H14.8948H27.869L39.9108 43.9795L46.2145 38.2306" stroke="black" stroke-width="2" stroke-miterlimit="10" stroke-linejoin="bevel"/>
<path d="M9.62708 36.7773L14.8072 42.1489L20.1626 36.7773" stroke="black" stroke-width="2" stroke-miterlimit="10" stroke-linejoin="bevel"/>
<path d="M76.3308 20.6868C76.3308 25.5686 78.7137 33.2365 85.1051 33.2365C91.5683 33.2365 93.8794 25.5686 93.8794 20.6868C93.8794 15.8051 89.9585 11.8467 85.1051 11.8467C80.7777 11.8467 76.3308 14.4883 76.3308 20.6868Z" stroke="black" stroke-width="2" stroke-miterlimit="10" stroke-linejoin="bevel"/>
<path d="M45.9993 38.3752L58.8938 51.8562L71.4456 45.3847V52.7635H98.7726V45.3847V45.2321C98.7726 40.5591 95.0111 36.7693 90.3729 36.7693H85.1051H72.1389L59.9537 43.6745C59.9537 43.6745 52.8052 36.2073 50.0318 33.3168C47.3382 30.5226 43.3136 35.0511 45.9993 38.3752Z" stroke="black" stroke-width="2" stroke-miterlimit="10" stroke-linejoin="bevel"/>
<path d="M90.3729 36.7773L85.2008 42.1489L79.8374 36.7773" stroke="black" stroke-width="2" stroke-miterlimit="10" stroke-linejoin="bevel"/>
<path d="M49.8167 33.3971C53.7217 29.1577 58.83 35.2117 54.925 39.4511" stroke="black" stroke-width="2" stroke-miterlimit="10" stroke-linejoin="bevel"/>
<path d="M59.0613 16.8247L53.132 15.9576L50.4862 10.5459L47.8324 15.9576L41.9111 16.8247L46.1987 21.032L45.1866 26.9817L50.4862 24.1714L55.7859 26.9817L54.7737 21.032L59.0613 16.8247ZM51.052 23.0714H49.9124L46.8203 24.7094L47.41 21.2408L47.0594 20.1488L44.549 17.6919L48.0077 17.186L48.9401 16.5036L50.4862 13.3481L52.0323 16.5036L52.9567 17.186L56.4154 17.6919L53.913 20.1488L53.5544 21.2408L54.1521 24.7094L51.052 23.0714Z" fill="white"/>
<path d="M59.914 17.708L59.2366 15.5964L53.9529 14.8256L51.586 10H49.3784L47.0195 14.8256L41.7358 15.5964L41.0504 17.708L44.8757 21.4657L43.9752 26.773L45.7603 28.0737L50.4862 25.5686L55.212 28.0737L56.9972 26.773L56.0887 21.4657L59.914 17.708ZM46.8203 24.7095L47.41 21.2409L47.0593 20.1489L44.549 17.692L48.0077 17.1861L48.9401 16.5037L50.4862 13.3482L52.0322 16.5037L52.9567 17.1861L56.4154 17.692L53.913 20.1489L53.5544 21.2409L54.1521 24.7095L51.052 23.0715H49.9124L46.8203 24.7095Z" fill="#31FF9C"/>
</svg>
