<svg width="54" height="55" viewBox="0 0 54 55" fill="none" xmlns="http://www.w3.org/2000/svg">
<g clip-path="url(#clip0_21_6218)">
<path d="M4.06982 12.8523C8.77218 5.61217 16.9453 0.797852 26.2381 0.797852C33.217 0.797852 39.5614 3.48491 44.3011 7.92603" stroke="#FA671A" stroke-width="1.23517" stroke-miterlimit="10" stroke-linejoin="bevel"/>
<path d="M48.0335 12.8521L39.5618 11.3593L44.1522 7.81384L48.556 4.38037L48.0335 12.8521Z" stroke="#FA671A" stroke-width="1.23517" stroke-miterlimit="10" stroke-linejoin="bevel"/>
<path d="M32.2385 19.3732C32.2385 22.6782 30.6197 27.8382 26.2692 27.8382C21.8849 27.8382 20.2998 22.6782 20.2998 19.3732C20.2998 16.0681 22.9641 13.4038 26.2692 13.4038C29.5742 13.4038 32.2385 16.0681 32.2385 19.3732Z" stroke="white" stroke-width="1.23517" stroke-miterlimit="10" stroke-linejoin="bevel"/>
<path d="M29.8441 29.8281H26.2693H22.6944C19.558 29.8281 16.9949 32.3912 16.9949 35.5277V35.6288V37.7535H19.1196H33.419H35.5437V35.6288V35.5277C35.5437 32.3912 33.0143 29.8281 29.8441 29.8281Z" stroke="white" stroke-width="1.23517" stroke-miterlimit="10" stroke-linejoin="bevel"/>
<path d="M22.6946 29.8281L26.202 33.4367L29.8443 29.8281" stroke="white" stroke-width="1.23517" stroke-miterlimit="10" stroke-linejoin="bevel"/>
<path d="M49.9779 22.6103C49.9779 25.0048 48.7976 28.782 45.6274 28.782C42.4235 28.782 41.2769 25.0048 41.2769 22.6103C41.2769 20.2158 43.2329 18.2598 45.6274 18.2598C48.0556 18.2598 49.9779 20.2158 49.9779 22.6103Z" stroke="white" stroke-width="1.23517" stroke-miterlimit="10" stroke-linejoin="bevel"/>
<path d="M48.2579 30.2319H45.6611H43.0305C40.7372 30.2319 38.8823 32.0868 38.8823 34.3801V34.4476V35.9989H40.4337H50.8548H52.4061V34.4476V34.3801C52.4061 32.0868 50.5512 30.2319 48.2579 30.2319Z" stroke="white" stroke-width="1.23517" stroke-miterlimit="10" stroke-linejoin="bevel"/>
<path d="M43.0308 30.2319L45.5939 32.8625L48.2582 30.2319" stroke="white" stroke-width="1.23517" stroke-miterlimit="10" stroke-linejoin="bevel"/>
<path d="M11.8007 22.6108C11.8007 25.0053 10.6203 28.7825 7.45015 28.7825C4.24626 28.7825 3.09961 25.0053 3.09961 22.6108C3.09961 20.2163 5.05567 18.2603 7.45015 18.2603C9.84464 18.2603 11.8007 20.2163 11.8007 22.6108Z" stroke="white" stroke-width="1.23517" stroke-miterlimit="10" stroke-linejoin="bevel"/>
<path d="M10.0807 30.2324H7.48383H4.88699C2.59369 30.2324 0.705078 32.0873 0.705078 34.3806V34.4481V35.9994H2.25643H12.6775H14.2289V34.4481V34.3806C14.2289 32.0873 12.374 30.2324 10.0807 30.2324Z" stroke="white" stroke-width="1.23517" stroke-miterlimit="10" stroke-linejoin="bevel"/>
<path d="M4.88623 30.2324L7.41562 32.863L10.0799 30.2324" stroke="white" stroke-width="1.23517" stroke-miterlimit="10" stroke-linejoin="bevel"/>
<path d="M48.556 41.8501C43.8163 49.0902 35.6431 53.8672 26.3504 53.8672C19.3715 53.8672 13.027 51.1802 8.28735 46.7391" stroke="#FA671A" stroke-width="1.23517" stroke-miterlimit="10" stroke-linejoin="bevel"/>
<path d="M4.59231 41.8501L13.0267 43.3429L8.47362 46.8883L4.06982 50.2845L4.59231 41.8501Z" stroke="#FA671A" stroke-width="1.23517" stroke-miterlimit="10" stroke-linejoin="bevel"/>
</g>
<defs>
<clipPath id="clip0_21_6218">
<rect width="53.1124" height="54.9651" fill="white"/>
</clipPath>
</defs>
</svg>
