<svg width="45" height="62" viewBox="0 0 45 62" fill="none" xmlns="http://www.w3.org/2000/svg">
<path d="M24.375 0.404297V34.7602" stroke="#FA671A" stroke-width="1.23517" stroke-miterlimit="10" stroke-linejoin="bevel"/>
<path d="M24.375 22.1089L34.1563 12.2871" stroke="#FA671A" stroke-width="1.23517" stroke-miterlimit="10" stroke-linejoin="bevel"/>
<path d="M27.4062 36.6602L41.5932 22.5137" stroke="#FA671A" stroke-width="1.23517" stroke-miterlimit="10" stroke-linejoin="bevel"/>
<path d="M38.1946 17.1781L24.3714 0.404297L10.5077 17.2185C3.03027 26.2723 2.78776 38.8021 8.81015 48.0176L12.4074 51.6149V23.3217H18.3894V34.5177H24.3714V36.6599H30.3534V38.5596H36.3353V43.0057V52.2616C45.7933 43.0461 46.8846 27.7678 38.1946 17.1781Z" stroke="#FA671A" stroke-width="1.23517" stroke-miterlimit="10" stroke-linejoin="bevel"/>
<path d="M30.3552 38.6006V36.7009H24.3732V34.5587H18.3912V23.3223H12.4093V51.6154L8.36739 47.5735C6.58896 45.7951 3.67881 45.7951 1.90039 47.5735L0.445312 49.0286L12.4497 61.033H31.0423V55.7381H36.3372V43.0466V38.6006H30.3552Z" stroke="white" stroke-width="1.23517" stroke-miterlimit="10" stroke-linejoin="bevel"/>
<path d="M18.3906 34.5176V43.0459" stroke="white" stroke-width="1.23517" stroke-miterlimit="10" stroke-linejoin="bevel"/>
<path d="M24.375 34.7617V43.2901" stroke="white" stroke-width="1.23517" stroke-miterlimit="10" stroke-linejoin="bevel"/>
<path d="M30.3555 38.6016V43.6135" stroke="white" stroke-width="1.23517" stroke-miterlimit="10" stroke-linejoin="bevel"/>
</svg>
