<svg width="55" height="54" viewBox="0 0 55 54" fill="none" xmlns="http://www.w3.org/2000/svg">
<path d="M40.1058 8.84766H15.8473V14.8707H9.82422V39.1292H15.8473V45.1523H40.1058V39.1292H46.1288V14.8707H40.1058V8.84766Z" stroke="white" stroke-width="0.875209" stroke-miterlimit="10" stroke-linejoin="bevel"/>
<path d="M31.7147 36.554H37.5301V17.4463H18.4224V23.1786" stroke="white" stroke-width="0.875209" stroke-miterlimit="10" stroke-linejoin="bevel"/>
<path d="M28.9316 36.5542C27.8516 31.2788 23.6977 27.1249 18.4224 26.0449" stroke="#FA671A" stroke-width="0.875209" stroke-miterlimit="10" stroke-linejoin="bevel"/>
<path d="M25.6085 36.5538C24.6947 33.0646 21.9116 30.3231 18.4224 29.3677" stroke="#FA671A" stroke-width="0.875209" stroke-miterlimit="10" stroke-linejoin="bevel"/>
<path d="M22.2024 36.5539C21.4962 34.8509 20.1254 33.4801 18.4224 32.7739" stroke="#FA671A" stroke-width="0.875209" stroke-miterlimit="10" stroke-linejoin="bevel"/>
<path d="M20.7483 8.84769V0" stroke="white" stroke-width="0.875209" stroke-miterlimit="10" stroke-linejoin="bevel"/>
<path d="M35.2046 8.84769V0" stroke="white" stroke-width="0.875209" stroke-miterlimit="10" stroke-linejoin="bevel"/>
<path d="M27.9758 8.84774V2.28467" stroke="white" stroke-width="0.875209" stroke-miterlimit="10" stroke-linejoin="bevel"/>
<path d="M20.7483 54V45.1523" stroke="white" stroke-width="0.875209" stroke-miterlimit="10" stroke-linejoin="bevel"/>
<path d="M35.2046 54V45.1523" stroke="white" stroke-width="0.875209" stroke-miterlimit="10" stroke-linejoin="bevel"/>
<path d="M27.9758 51.7154V45.1523" stroke="white" stroke-width="0.875209" stroke-miterlimit="10" stroke-linejoin="bevel"/>
<path d="M46.1287 19.7725H54.9764" stroke="white" stroke-width="0.875209" stroke-miterlimit="10" stroke-linejoin="bevel"/>
<path d="M46.1287 34.2275H54.9764" stroke="white" stroke-width="0.875209" stroke-miterlimit="10" stroke-linejoin="bevel"/>
<path d="M46.1287 27H52.6917" stroke="white" stroke-width="0.875209" stroke-miterlimit="10" stroke-linejoin="bevel"/>
<path d="M0.976318 19.7725H9.82401" stroke="white" stroke-width="0.875209" stroke-miterlimit="10" stroke-linejoin="bevel"/>
<path d="M0.976318 34.2275H9.82401" stroke="white" stroke-width="0.875209" stroke-miterlimit="10" stroke-linejoin="bevel"/>
<path d="M3.26123 27H9.82431" stroke="white" stroke-width="0.875209" stroke-miterlimit="10" stroke-linejoin="bevel"/>
</svg>
