<?xml version="1.0" encoding="utf-8"?><svg xmlns="http://www.w3.org/2000/svg" xmlns:xlink="http://www.w3.org/1999/xlink"><symbol viewBox="0 0 14 14" id="goback" xmlns="http://www.w3.org/2000/svg"><path fill-rule="evenodd" clip-rule="evenodd" d="M6.146.646L1.793 5l4.353 4.354.708-.708L3.707 5.5H11.5v-1H3.707l3.147-3.146-.708-.708z"/></symbol><symbol fill="none" viewBox="0 0 15 22" id="gobottom" xmlns="http://www.w3.org/2000/svg"><path fill-rule="evenodd" clip-rule="evenodd" d="M7.932.037L7.869 13.37l-1-.004L6.932.032l1 .005z" fill="#fff"/><path fill-rule="evenodd" clip-rule="evenodd" d="M12.705 12.893l.386.814-5.364 6.641-.781-.003-5.302-6.692.394-.81 10.667.05zm-1.045.995l-8.586-.04 4.268 5.386 4.318-5.346z" fill="#60FF54"/></symbol><symbol viewBox="0 0 18 18" id="goforward" xmlns="http://www.w3.org/2000/svg"><path fill-rule="evenodd" clip-rule="evenodd" d="M0 7.501h10V8.5H0v-1z"/><path fill-rule="evenodd" clip-rule="evenodd" d="M9.501 4l.81-.39 5 4v.78l-5 4-.81-.39V4zm.998 1.038v5.924L14.202 8l-3.703-2.962z"/></symbol><symbol viewBox="0 0 226 16" id="logotip" xmlns="http://www.w3.org/2000/svg"><path fill-rule="evenodd" clip-rule="evenodd" d="M127.133 8.895h-22.675V7.007h22.675v1.888z"/><path d="M0 15.51h2.517v-5.035h10.067V7.957H2.517V2.922h11.326V.405H0V15.51zM31.465 2.923h5.661V15.51h2.518V2.923h5.664V.405H31.465v2.518zm64.185-.014V.39H81.804v15.105H95.65V12.98H84.322V9.202h10.07V6.685h-10.07V2.909H95.65zM72.192 9.216h1.868c3.02 0 4.912-1.734 4.912-4.405 0-2.671-1.895-4.406-4.912-4.406H63.87V15.51h2.518V9.217h2.262l5.28 6.293h5.042v-2.517h-3.615l-3.165-3.777zm-5.804-6.325h7.671c2.43 0 2.43 1.448 2.43 1.923 0 1.923-1.828 1.923-2.43 1.923h-7.67V2.891zM29.577.405v8.332c0 4.637-2.832 6.924-6.923 6.924-4.115 0-6.923-2.287-6.923-6.924V.405h2.518v8.332c0 2.784 1.398 4.406 4.405 4.406 2.965 0 4.406-1.601 4.406-4.406V.405h2.517zm31.462 0v8.332c0 4.637-2.833 6.924-6.924 6.924-4.115 0-6.923-2.287-6.923-6.924V.405h2.518v8.332c0 2.784 1.398 4.406 4.405 4.406 2.965 0 4.406-1.601 4.406-4.406V.405h2.518zm108.569 2.511h4.721v10.066h-4.721V15.5h11.955v-2.518h-4.717V2.916h4.703V.398h-11.941v2.518zM186.916.398h-2.517V15.5h12.273v-2.518h-9.756V.398zm14.158 0h-2.514V15.5h12.269v-2.518h-9.755V.398zm-37.011 0l-9.238 11.011V.399h-2.517v15.1h2.37l4.693-5.594 4.692 5.595h3.287l-6.336-7.553L167.35.398h-3.287zm-15.664 7.63c-.926-.784-2.304-1.193-4.21-1.347l-2.182-.185c-1.017-.08-1.867-.343-2.3-.706a1.604 1.604 0 0 1-.605-1.308c.017-.608.304-1.09.888-1.458.629-.395 1.629-.63 2.948-.598 1.251.032 2.15.374 2.828.888a2.571 2.571 0 0 1 1.032 1.99v.122h2.675V5.36c-.007-1.542-.514-2.804-1.514-3.755-.997-.952-2.605-1.462-4.78-1.518-2.228-.06-3.941.325-5.091 1.136-1.171.826-1.78 1.86-1.818 3.333-.035 1.297.398 2.227 1.328 3.017.913.776 2.238 1.143 3.895 1.287l2.273.189c1.252.101 2.172.388 2.595.783.419.391.594.856.577 1.426-.039 1.469-1.542 2.284-4.336 2.21-1.36-.035-2.479-.342-3.199-.92-.724-.58-1.182-1.377-1.203-1.971v-.109h-2.675v.053c.007 1.52.622 2.786 1.832 3.758 1.196.962 2.976 1.48 5.294 1.539 2.056.052 3.755-.311 5.052-1.084 1.329-.794 2.025-1.986 2.067-3.546.031-1.304-.427-2.363-1.371-3.16zm76.161 0c-.927-.784-2.304-1.193-4.21-1.347l-2.182-.185c-1.017-.08-1.867-.343-2.3-.706a1.604 1.604 0 0 1-.605-1.308c.017-.608.304-1.09.888-1.458.629-.395 1.629-.63 2.948-.598 1.251.032 2.15.374 2.828.888a2.571 2.571 0 0 1 1.032 1.99v.122h2.674V5.36c-.007-1.542-.514-2.804-1.514-3.755-.996-.952-2.604-1.462-4.779-1.518-2.228-.06-3.941.325-5.091 1.136-1.172.826-1.78 1.86-1.818 3.333-.035 1.297.398 2.227 1.328 3.017.913.776 2.238 1.143 3.895 1.287l2.273.189c1.252.101 2.172.388 2.595.783.419.391.594.856.577 1.426-.039 1.469-1.542 2.284-4.336 2.21-1.36-.035-2.479-.342-3.199-.92-.724-.58-1.182-1.377-1.203-1.971v-.109h-2.668v.053c.007 1.52.622 2.786 1.832 3.758 1.196.962 2.976 1.48 5.294 1.539 2.056.052 3.755-.311 5.052-1.084 1.329-.794 2.025-1.986 2.067-3.546.028-1.304-.434-2.363-1.378-3.16z"/></symbol><symbol viewBox="0 0 91 16" id="logotip-finish" xmlns="http://www.w3.org/2000/svg"><path d="M34.608 2.916h4.72v10.066h-4.72V15.5h11.955v-2.518h-4.717V2.916h4.703V.398H34.608v2.518zM51.916.398h-2.517V15.5h12.273v-2.518h-9.756V.398zm14.158 0H63.56V15.5h12.269v-2.518h-9.755V.398zm-37.011 0L19.825 11.41V.399h-2.517v15.1h2.37l4.693-5.594 4.692 5.595h3.287l-6.336-7.553L32.35.398h-3.287zm-15.664 7.63c-.926-.784-2.304-1.193-4.21-1.347l-2.182-.185c-1.017-.08-1.867-.343-2.3-.706a1.604 1.604 0 0 1-.605-1.308c.017-.608.304-1.09.888-1.458.629-.395 1.629-.63 2.948-.598 1.25.032 2.15.374 2.828.888a2.571 2.571 0 0 1 1.032 1.99v.122h2.675V5.36c-.007-1.542-.514-2.804-1.514-3.755C11.962.653 10.354.143 8.179.087 5.95.027 4.238.412 3.088 1.223c-1.171.826-1.78 1.86-1.818 3.333-.035 1.297.398 2.227 1.328 3.017.913.776 2.238 1.143 3.895 1.287l2.273.189c1.252.101 2.172.388 2.595.783.419.391.594.856.577 1.426-.04 1.469-1.542 2.284-4.336 2.21-1.36-.035-2.48-.342-3.2-.92-.723-.58-1.181-1.377-1.202-1.971v-.109H.525v.053c.007 1.52.622 2.786 1.832 3.758 1.196.962 2.976 1.48 5.294 1.539 2.056.052 3.755-.311 5.052-1.084 1.329-.794 2.025-1.986 2.067-3.546.03-1.304-.427-2.363-1.371-3.16zm76.161 0c-.927-.784-2.304-1.193-4.21-1.347l-2.182-.185c-1.017-.08-1.867-.343-2.3-.706a1.604 1.604 0 0 1-.605-1.308c.017-.608.304-1.09.888-1.458.629-.395 1.629-.63 2.948-.598 1.25.032 2.15.374 2.828.888a2.571 2.571 0 0 1 1.032 1.99v.122h2.674V5.36c-.007-1.542-.514-2.804-1.514-3.755-.996-.952-2.604-1.462-4.78-1.518-2.227-.06-3.94.325-5.09 1.136-1.172.826-1.78 1.86-1.818 3.333-.035 1.297.398 2.227 1.328 3.017.913.776 2.238 1.143 3.895 1.287l2.273.189c1.252.101 2.172.388 2.595.783.419.391.594.856.577 1.426-.04 1.469-1.542 2.284-4.336 2.21-1.36-.035-2.48-.342-3.2-.92-.723-.58-1.181-1.377-1.202-1.971v-.109h-2.668v.053c.007 1.52.622 2.786 1.832 3.758 1.196.962 2.976 1.48 5.294 1.539 2.056.052 3.755-.311 5.052-1.084 1.329-.794 2.025-1.986 2.067-3.546.028-1.304-.434-2.363-1.378-3.16z"/></symbol><symbol viewBox="0 0 96 16" id="logotip-start" xmlns="http://www.w3.org/2000/svg"><path d="M0 15.51h2.517v-5.035h10.067V7.958H2.517V2.923h11.326V.405H0V15.51zM31.465 2.923h5.661v12.588h2.518V2.923h5.664V.406H31.465v2.517zM95.65 2.91V.391H81.804v15.105H95.65v-2.518H84.322V9.203h10.07V6.685h-10.07V2.91H95.65zM72.192 9.217h1.868c3.02 0 4.912-1.734 4.912-4.406 0-2.671-1.895-4.405-4.912-4.405H63.87V15.51h2.518V9.217h2.262l5.28 6.294h5.042v-2.518h-3.615l-3.165-3.776zm-5.804-6.325h7.671c2.43 0 2.43 1.447 2.43 1.923 0 1.923-1.828 1.923-2.43 1.923h-7.67V2.892zM29.577.406v8.332c0 4.636-2.832 6.923-6.923 6.923-4.115 0-6.923-2.287-6.923-6.923V.406h2.518v8.332c0 2.783 1.398 4.406 4.405 4.406 2.965 0 4.406-1.602 4.406-4.406V.406h2.517zm31.462 0v8.332c0 4.636-2.833 6.923-6.924 6.923-4.115 0-6.923-2.287-6.923-6.923V.406h2.518v8.332c0 2.783 1.398 4.406 4.405 4.406 2.965 0 4.406-1.602 4.406-4.406V.406h2.518z"/></symbol><symbol viewBox="0 0 15 15" id="modal-close" xmlns="http://www.w3.org/2000/svg"><path fill-rule="evenodd" clip-rule="evenodd" d="M7.25 8.31l5.72 5.72 1.06-1.06-5.72-5.72 5.72-5.72L12.97.47 7.25 6.19 1.53.47.47 1.53l5.72 5.72-5.72 5.72 1.06 1.06 5.72-5.72z"/></symbol><symbol viewBox="0 0 13 14" id="search" xmlns="http://www.w3.org/2000/svg"><path fill-rule="evenodd" clip-rule="evenodd" d="M11 6A5 5 0 1 1 1 6a5 5 0 0 1 10 0zm-1.697 5.01a6 6 0 1 1 .79-.623l2.76 2.76-.707.707-2.843-2.844z"/></symbol></svg>