<?xml version="1.0" encoding="utf-8"?><svg xmlns="http://www.w3.org/2000/svg" xmlns:xlink="http://www.w3.org/1999/xlink"><symbol viewBox="0 0 16 13" id="download" xmlns="http://www.w3.org/2000/svg"><path fill-rule="evenodd" clip-rule="evenodd" d="M12.354 5.354L8 9.707 3.646 5.354l.708-.708L7.5 7.793V0h1v7.793l3.146-3.147.708.708zM1.5 11.5V10h-1v2.5h15V10h-1v1.5h-13z"/></symbol><symbol viewBox="0 0 14 14" id="goback" xmlns="http://www.w3.org/2000/svg"><path fill-rule="evenodd" clip-rule="evenodd" d="M6.146.646L1.793 5l4.353 4.354.708-.708L3.707 5.5H11.5v-1H3.707l3.147-3.146-.708-.708z"/></symbol><symbol fill="none" viewBox="0 0 15 22" id="gobottom" xmlns="http://www.w3.org/2000/svg"><path fill-rule="evenodd" clip-rule="evenodd" d="M7.932.037L7.869 13.37l-1-.004L6.932.032l1 .005z" fill="#fff"/><path fill-rule="evenodd" clip-rule="evenodd" d="M12.705 12.893l.386.814-5.364 6.641-.781-.003-5.302-6.692.394-.81 10.667.05zm-1.045.995l-8.586-.04 4.268 5.386 4.318-5.346z" fill="#60FF54"/></symbol><symbol viewBox="0 0 18 18" id="goforward" xmlns="http://www.w3.org/2000/svg"><path fill-rule="evenodd" clip-rule="evenodd" d="M0 7.501h10V8.5H0v-1z"/><path fill-rule="evenodd" clip-rule="evenodd" d="M9.501 4l.81-.39 5 4v.78l-5 4-.81-.39V4zm.998 1.038v5.924L14.202 8l-3.703-2.962z"/></symbol><symbol viewBox="0 0 23 23" id="humb" xmlns="http://www.w3.org/2000/svg"><path fill-rule="evenodd" clip-rule="evenodd" d="M22 5.5H1V4h21v1.5zm0 7H9V11h13v1.5zm-17 7h17V18H5v1.5z"/></symbol><symbol viewBox="0 0 23 24" id="humb-close" xmlns="http://www.w3.org/2000/svg"><path fill-rule="evenodd" clip-rule="evenodd" d="M15.488 5l-1.238.57v5.25H0v1.5h14.25v5.25l1.238.569 7-6V11l-7-6zm5.36 6.57l-5.098 4.369V7.2l5.098 4.37z"/></symbol><symbol viewBox="0 0 226 16" id="logotip" xmlns="http://www.w3.org/2000/svg"><path fill-rule="evenodd" clip-rule="evenodd" d="M127.133 8.895h-22.675V7.007h22.675v1.888z"/><path d="M0 15.51h2.517v-5.035h10.067V7.957H2.517V2.922h11.326V.405H0V15.51zM31.465 2.923h5.661V15.51h2.518V2.923h5.664V.405H31.465v2.518zm64.185-.014V.39H81.804v15.105H95.65V12.98H84.322V9.202h10.07V6.685h-10.07V2.909H95.65zM72.192 9.216h1.868c3.02 0 4.912-1.734 4.912-4.405 0-2.671-1.895-4.406-4.912-4.406H63.87V15.51h2.518V9.217h2.262l5.28 6.293h5.042v-2.517h-3.615l-3.165-3.777zm-5.804-6.325h7.671c2.43 0 2.43 1.448 2.43 1.923 0 1.923-1.828 1.923-2.43 1.923h-7.67V2.891zM29.577.405v8.332c0 4.637-2.832 6.924-6.923 6.924-4.115 0-6.923-2.287-6.923-6.924V.405h2.518v8.332c0 2.784 1.398 4.406 4.405 4.406 2.965 0 4.406-1.601 4.406-4.406V.405h2.517zm31.462 0v8.332c0 4.637-2.833 6.924-6.924 6.924-4.115 0-6.923-2.287-6.923-6.924V.405h2.518v8.332c0 2.784 1.398 4.406 4.405 4.406 2.965 0 4.406-1.601 4.406-4.406V.405h2.518zm108.569 2.511h4.721v10.066h-4.721V15.5h11.955v-2.518h-4.717V2.916h4.703V.398h-11.941v2.518zM186.916.398h-2.517V15.5h12.273v-2.518h-9.756V.398zm14.158 0h-2.514V15.5h12.269v-2.518h-9.755V.398zm-37.011 0l-9.238 11.011V.399h-2.517v15.1h2.37l4.693-5.594 4.692 5.595h3.287l-6.336-7.553L167.35.398h-3.287zm-15.664 7.63c-.926-.784-2.304-1.193-4.21-1.347l-2.182-.185c-1.017-.08-1.867-.343-2.3-.706a1.604 1.604 0 0 1-.605-1.308c.017-.608.304-1.09.888-1.458.629-.395 1.629-.63 2.948-.598 1.251.032 2.15.374 2.828.888a2.571 2.571 0 0 1 1.032 1.99v.122h2.675V5.36c-.007-1.542-.514-2.804-1.514-3.755-.997-.952-2.605-1.462-4.78-1.518-2.228-.06-3.941.325-5.091 1.136-1.171.826-1.78 1.86-1.818 3.333-.035 1.297.398 2.227 1.328 3.017.913.776 2.238 1.143 3.895 1.287l2.273.189c1.252.101 2.172.388 2.595.783.419.391.594.856.577 1.426-.039 1.469-1.542 2.284-4.336 2.21-1.36-.035-2.479-.342-3.199-.92-.724-.58-1.182-1.377-1.203-1.971v-.109h-2.675v.053c.007 1.52.622 2.786 1.832 3.758 1.196.962 2.976 1.48 5.294 1.539 2.056.052 3.755-.311 5.052-1.084 1.329-.794 2.025-1.986 2.067-3.546.031-1.304-.427-2.363-1.371-3.16zm76.161 0c-.927-.784-2.304-1.193-4.21-1.347l-2.182-.185c-1.017-.08-1.867-.343-2.3-.706a1.604 1.604 0 0 1-.605-1.308c.017-.608.304-1.09.888-1.458.629-.395 1.629-.63 2.948-.598 1.251.032 2.15.374 2.828.888a2.571 2.571 0 0 1 1.032 1.99v.122h2.674V5.36c-.007-1.542-.514-2.804-1.514-3.755-.996-.952-2.604-1.462-4.779-1.518-2.228-.06-3.941.325-5.091 1.136-1.172.826-1.78 1.86-1.818 3.333-.035 1.297.398 2.227 1.328 3.017.913.776 2.238 1.143 3.895 1.287l2.273.189c1.252.101 2.172.388 2.595.783.419.391.594.856.577 1.426-.039 1.469-1.542 2.284-4.336 2.21-1.36-.035-2.479-.342-3.199-.92-.724-.58-1.182-1.377-1.203-1.971v-.109h-2.668v.053c.007 1.52.622 2.786 1.832 3.758 1.196.962 2.976 1.48 5.294 1.539 2.056.052 3.755-.311 5.052-1.084 1.329-.794 2.025-1.986 2.067-3.546.028-1.304-.434-2.363-1.378-3.16z"/></symbol><symbol viewBox="0 0 17 91" id="logotip-finish" xmlns="http://www.w3.org/2000/svg"><path d="M3.416 56.892v-4.72h10.066v4.72H16V44.937h-2.518v4.717H3.416v-4.703H.898v11.941h2.518zM.898 39.584v2.517H16V29.828h-2.518v9.756H.898zm0-14.158v2.514H16V15.671h-2.518v9.755H.898zm0 37.011l11.011 9.238H.899v2.517h15.1v-2.37l-5.594-4.693L16 62.437V59.15l-7.553 6.336L.898 59.15v3.287zm7.63 15.664c-.784.926-1.193 2.304-1.347 4.21l-.185 2.182c-.08 1.017-.343 1.867-.706 2.3a1.604 1.604 0 0 1-1.308.605c-.608-.017-1.09-.304-1.458-.888-.395-.629-.63-1.629-.598-2.948.032-1.25.374-2.15.888-2.828a2.571 2.571 0 0 1 1.99-1.032h.122v-2.675H5.86c-1.542.007-2.804.514-3.755 1.514-.952.997-1.462 2.605-1.518 4.78-.06 2.228.325 3.941 1.136 5.091.826 1.171 1.86 1.78 3.333 1.818 1.297.035 2.227-.398 3.017-1.328.776-.913 1.143-2.238 1.287-3.895l.189-2.273c.101-1.252.388-2.172.783-2.595.391-.419.856-.594 1.426-.577 1.469.04 2.284 1.542 2.21 4.336-.035 1.36-.342 2.48-.92 3.2-.58.723-1.377 1.181-1.971 1.202h-.109v2.675h.053c1.52-.007 2.786-.622 3.758-1.832.962-1.196 1.48-2.976 1.539-5.294.052-2.056-.311-3.755-1.084-5.052-.794-1.329-1.986-2.025-3.546-2.067-1.304-.03-2.363.427-3.16 1.371zm0-76.161c-.784.927-1.193 2.304-1.347 4.21l-.185 2.182c-.08 1.017-.343 1.867-.706 2.3a1.604 1.604 0 0 1-1.308.605c-.608-.017-1.09-.304-1.458-.888-.395-.629-.63-1.629-.598-2.948.032-1.25.374-2.15.888-2.828a2.571 2.571 0 0 1 1.99-1.032h.122V.867H5.86c-1.542.007-2.804.514-3.755 1.514-.952.996-1.462 2.604-1.518 4.78-.06 2.227.325 3.94 1.136 5.09.826 1.172 1.86 1.78 3.333 1.818 1.297.035 2.227-.398 3.017-1.328.776-.913 1.143-2.238 1.287-3.895l.189-2.273c.101-1.252.388-2.172.783-2.595.391-.419.856-.594 1.426-.577 1.469.04 2.284 1.542 2.21 4.336-.035 1.36-.342 2.48-.92 3.2-.58.723-1.377 1.181-1.971 1.202h-.109v2.668h.053c1.52-.007 2.786-.622 3.758-1.832.962-1.196 1.48-2.976 1.539-5.294.052-2.056-.311-3.755-1.084-5.052C14.44 1.3 13.248.604 11.688.562 10.384.534 9.325.996 8.528 1.94z"/></symbol><symbol viewBox="0 0 91 16" id="logotip-finish-h" xmlns="http://www.w3.org/2000/svg"><path d="M34.608 2.916h4.72v10.066h-4.72V15.5h11.955v-2.518h-4.717V2.916h4.703V.398H34.608v2.518zM51.916.398h-2.517V15.5h12.273v-2.518h-9.756V.398zm14.158 0H63.56V15.5h12.269v-2.518h-9.755V.398zm-37.011 0L19.825 11.41V.399h-2.517v15.1h2.37l4.693-5.594 4.692 5.595h3.287l-6.336-7.553L32.35.398h-3.287zm-15.664 7.63c-.926-.784-2.304-1.193-4.21-1.347l-2.182-.185c-1.017-.08-1.867-.343-2.3-.706a1.604 1.604 0 0 1-.605-1.308c.017-.608.304-1.09.888-1.458.629-.395 1.629-.63 2.948-.598 1.25.032 2.15.374 2.828.888a2.571 2.571 0 0 1 1.032 1.99v.122h2.675V5.36c-.007-1.542-.514-2.804-1.514-3.755C11.962.653 10.354.143 8.179.087 5.95.027 4.238.412 3.088 1.223c-1.171.826-1.78 1.86-1.818 3.333-.035 1.297.398 2.227 1.328 3.017.913.776 2.238 1.143 3.895 1.287l2.273.189c1.252.101 2.172.388 2.595.783.419.391.594.856.577 1.426-.04 1.469-1.542 2.284-4.336 2.21-1.36-.035-2.48-.342-3.2-.92-.723-.58-1.181-1.377-1.202-1.971v-.109H.525v.053c.007 1.52.622 2.786 1.832 3.758 1.196.962 2.976 1.48 5.294 1.539 2.056.052 3.755-.311 5.052-1.084 1.329-.794 2.025-1.986 2.067-3.546.03-1.304-.427-2.363-1.371-3.16zm76.161 0c-.927-.784-2.304-1.193-4.21-1.347l-2.182-.185c-1.017-.08-1.867-.343-2.3-.706a1.604 1.604 0 0 1-.605-1.308c.017-.608.304-1.09.888-1.458.629-.395 1.629-.63 2.948-.598 1.25.032 2.15.374 2.828.888a2.571 2.571 0 0 1 1.032 1.99v.122h2.674V5.36c-.007-1.542-.514-2.804-1.514-3.755-.996-.952-2.604-1.462-4.78-1.518-2.227-.06-3.94.325-5.09 1.136-1.172.826-1.78 1.86-1.818 3.333-.035 1.297.398 2.227 1.328 3.017.913.776 2.238 1.143 3.895 1.287l2.273.189c1.252.101 2.172.388 2.595.783.419.391.594.856.577 1.426-.04 1.469-1.542 2.284-4.336 2.21-1.36-.035-2.48-.342-3.2-.92-.723-.58-1.181-1.377-1.202-1.971v-.109h-2.668v.053c.007 1.52.622 2.786 1.832 3.758 1.196.962 2.976 1.48 5.294 1.539 2.056.052 3.755-.311 5.052-1.084 1.329-.794 2.025-1.986 2.067-3.546.028-1.304-.434-2.363-1.378-3.16z"/></symbol><symbol fill="none" viewBox="0 0 17 276" id="logotip-landing-finish" xmlns="http://www.w3.org/2000/svg"><g clip-path="url(#clip0_26_7438)"><path d="M8.322 261.49c-.82.967-1.248 2.404-1.41 4.393l-.193 2.276c-.085 1.062-.36 1.949-.74 2.401a1.68 1.68 0 0 1-1.37.631c-.637-.018-1.142-.317-1.527-.926-.414-.657-.659-1.701-.626-3.076.033-1.306.392-2.244.93-2.952a2.693 2.693 0 0 1 2.084-1.076h.128v-2.791h-.07c-1.615.007-2.936.536-3.932 1.579-.997 1.04-1.531 2.719-1.59 4.988-.062 2.324.34 4.112 1.19 5.313.865 1.222 1.948 1.857 3.49 1.897 1.359.036 2.333-.416 3.16-1.387.813-.952 1.198-2.335 1.348-4.064l.198-2.372c.106-1.306.406-2.266.82-2.707.41-.438.897-.62 1.494-.602 1.538.04 2.391 1.609 2.314 4.524-.036 1.419-.358 2.587-.963 3.339-.608.755-1.443 1.233-2.065 1.255h-.114v2.791h.055c1.593-.007 2.919-.649 3.937-1.912 1.007-1.248 1.549-3.105 1.611-5.524.055-2.145-.326-3.919-1.135-5.272-.831-1.387-2.08-2.113-3.713-2.157-1.366-.032-2.476.446-3.31 1.431z" fill="#fff"/><path d="M.262 236v-15.03h1.963v6.457h13.569v2.116H2.225V236H.262zm0-29.886h1.963v10.056h4.32v-6.021h1.963v6.021h5.3v-10.929h1.964v13.023H.262v-12.15zm15.532-2.095l-15.62-7.177v-1.68l15.62-7.198v2.225l-3.752 1.745v8.268l3.73 1.723v2.094h.022zm-5.672-4.69v-6.523l-7.09 3.273 7.09 3.25zm-9.86-17.19l12.587-5.41-12.587-5.41v-3.163h15.532v2.007h-13.7l13.787 5.934v1.461l-13.7 5.89h13.613v1.964H.262v-3.273zm7.766-34.272c-4.494 0-8.028-3.25-8.028-7.679 0-4.537 2.945-6.653 4.821-7.155v2.203c-1.09.546-2.814 2.138-2.814 4.952 0 3.316 2.77 5.476 6.043 5.476 3.272 0 6.042-2.138 6.042-5.476 0-3.141-1.832-4.493-2.836-4.995v-2.16c1.746.458 4.843 2.422 4.843 7.155-.043 4.451-3.577 7.679-8.071 7.679zM.262 127.731H6.98v-9.533H.26v-2.116h15.533v2.116h-6.85v9.533h6.85v2.116H.262v-2.116zm15.532-14.224L.174 106.33v-1.679l15.62-7.2v2.226l-3.73 1.723v8.268l3.73 1.723v2.116zm-5.672-4.69v-6.522l-7.09 3.25 7.09 3.272zM.262 94.9v-2.116h13.547V82.749h1.985v12.15H.262zm0-14.835V77.95h13.547V67.915h1.985v12.15H.262zm0-26.985h1.963v10.057h4.32v-6.02h1.963v6.02h5.3v-10.93h1.964v13.024H.262v-12.15zm0-6.215l11.889-9.38H.26v-2.03h15.642v1.506L2.77 47.41h13.024v2.028H.262v-2.574zm15.794-23.059c0 4.973-3.316 8.29-8.05 8.29C3.403 32.095 0 28.8 0 24.22c0-4.297 2.4-6.217 3.992-6.784v2.203c-.698.545-2.029 1.876-2.029 4.581 0 3.512 2.64 5.694 6.043 5.694 3.643 0 6.086-2.465 6.086-6.108 0-2.356-.654-3.949-1.265-4.778h-3.84v6.13H7.09v-8.137h6.566c1.134 1.2 2.4 3.316 2.4 6.785zM.262 1.098h1.963v10.056h4.32v-6.02h1.963v6.02h5.3V.225h1.964V13.25H.262V1.098z" fill="#FA671A" stroke="#FA671A" stroke-width=".5"/></g></symbol><symbol fill="none" viewBox="0 0 17 15" id="logotip-landing-start" xmlns="http://www.w3.org/2000/svg"><path d="M16.452 14.525V11.89H11.18V1.346H8.543V11.89H3.269V.028H.633v14.497h15.82z" fill="#fff"/></symbol><symbol viewBox="0 0 16 96" id="logotip-start" xmlns="http://www.w3.org/2000/svg"><path d="M15.309 95.852v-2.518h-5.035V83.267H7.757v10.067H2.722V82.01H.204v13.843H15.31zM2.722 64.386v-5.66H15.31v-2.518H2.722v-5.664H.205v13.842h2.517zM2.708.201H.19v13.846h15.105V.201h-2.517V11.53H9.002V1.46H6.484v10.07H2.708V.2zM9.016 23.66v-1.868c0-3.021-1.734-4.913-4.406-4.913-2.671 0-4.405 1.895-4.405 4.913v10.189h15.104v-2.518H9.017v-2.262l6.293-5.28V16.88h-2.517v3.616L9.017 23.66zM2.69 29.462v-7.671c0-2.43 1.447-2.43 1.923-2.43 1.923 0 1.923 1.829 1.923 2.43v7.671H2.69zM.205 66.274h8.332c4.636 0 6.923 2.832 6.923 6.923 0 4.116-2.287 6.924-6.923 6.924H.205v-2.518h8.332c2.783 0 4.405-1.399 4.405-4.406 0-2.965-1.601-4.405-4.405-4.405H.205v-2.518zm0-31.461h8.332c4.636 0 6.923 2.832 6.923 6.923 0 4.116-2.287 6.923-6.923 6.923H.205v-2.517h8.332c2.783 0 4.405-1.399 4.405-4.406 0-2.965-1.601-4.405-4.405-4.405H.205v-2.518z"/></symbol><symbol viewBox="0 0 96 16" id="logotip-start-h" xmlns="http://www.w3.org/2000/svg"><path d="M0 15.51h2.517v-5.035h10.067V7.958H2.517V2.923h11.326V.405H0V15.51zM31.465 2.923h5.661v12.588h2.518V2.923h5.664V.406H31.465v2.517zM95.65 2.91V.391H81.804v15.105H95.65v-2.518H84.322V9.203h10.07V6.685h-10.07V2.91H95.65zM72.192 9.217h1.868c3.02 0 4.912-1.734 4.912-4.406 0-2.671-1.895-4.405-4.912-4.405H63.87V15.51h2.518V9.217h2.262l5.28 6.294h5.042v-2.518h-3.615l-3.165-3.776zm-5.804-6.325h7.671c2.43 0 2.43 1.447 2.43 1.923 0 1.923-1.828 1.923-2.43 1.923h-7.67V2.892zM29.577.406v8.332c0 4.636-2.832 6.923-6.923 6.923-4.115 0-6.923-2.287-6.923-6.923V.406h2.518v8.332c0 2.783 1.398 4.406 4.405 4.406 2.965 0 4.406-1.602 4.406-4.406V.406h2.517zm31.462 0v8.332c0 4.636-2.833 6.923-6.924 6.923-4.115 0-6.923-2.287-6.923-6.923V.406h2.518v8.332c0 2.783 1.398 4.406 4.405 4.406 2.965 0 4.406-1.602 4.406-4.406V.406h2.518z"/></symbol><symbol viewBox="0 0 18 18" id="mailto" xmlns="http://www.w3.org/2000/svg"><path d="M1.275 2C.581 2 0 2.562 0 3.256v9.21c0 .693.58 1.255 1.275 1.255h15.45c.694 0 1.275-.562 1.275-1.256v-9.21C18 2.563 17.42 2 16.725 2H1.275zm.216.837H16.51L9.366 9.221c-.178.16-.554.16-.732 0L1.49 2.837zm-.654.537l5.226 4.67-5.226 4.33v-9zm16.326 0v9l-5.226-4.33 5.226-4.67zM6.698 8.613l1.38 1.23a1.387 1.387 0 0 0 1.844 0l1.38-1.23 5.16 4.27H1.538l5.16-4.27z"/></symbol><symbol viewBox="0 0 15 15" id="modal-close" xmlns="http://www.w3.org/2000/svg"><path fill-rule="evenodd" clip-rule="evenodd" d="M7.25 8.31l5.72 5.72 1.06-1.06-5.72-5.72 5.72-5.72L12.97.47 7.25 6.19 1.53.47.47 1.53l5.72 5.72-5.72 5.72 1.06 1.06 5.72-5.72z"/></symbol><symbol viewBox="0 0 13 14" id="search" xmlns="http://www.w3.org/2000/svg"><path fill-rule="evenodd" clip-rule="evenodd" d="M11 6A5 5 0 1 1 1 6a5 5 0 0 1 10 0zm-1.697 5.01a6 6 0 1 1 .79-.623l2.76 2.76-.707.707-2.843-2.844z"/></symbol></svg>