<svg width="96" height="16" viewBox="0 0 96 16" xmlns="http://www.w3.org/2000/svg">
<path d="M0 15.5102H2.51749V10.4752H12.584V7.95775H2.51749V2.92277H13.8427V0.405273H0V15.5102Z" />
<path d="M31.4653 2.92325H37.1262V15.5107H39.6437V2.92325H45.308V0.405762H31.4653V2.92325Z" />
<path d="M95.6504 2.90909V0.391602H81.8042V15.4966H95.6504V12.9791H84.3217V9.20283H94.3917V6.68533H84.3217V2.90909H95.6504Z" />
<path d="M72.1923 9.21699H74.0595C77.0805 9.21699 78.9721 7.48271 78.9721 4.81137C78.9721 2.14003 77.077 0.405762 74.0595 0.405762H63.8706V15.5107H66.3881V9.21699H68.6503L73.9301 15.5107H78.9721V12.9932H75.3567L72.1923 9.21699ZM66.3881 2.89179H74.0595C76.4895 2.89179 76.4895 4.33934 76.4895 4.81487C76.4895 6.73796 74.6609 6.73796 74.0595 6.73796H66.3881V2.89179Z" />
<path d="M29.5772 0.405762V8.73796C29.5772 13.3743 26.745 15.6611 22.6541 15.6611C18.5387 15.6611 15.731 13.3743 15.731 8.73796V0.405762H18.2485V8.73796C18.2485 11.5212 19.6471 13.1436 22.6541 13.1436C25.6191 13.1436 27.0597 11.5422 27.0597 8.73796V0.405762H29.5772Z" />
<path d="M61.0386 0.405762V8.73796C61.0386 13.3743 58.2064 15.6611 54.1155 15.6611C50.0001 15.6611 47.1924 13.3743 47.1924 8.73796V0.405762H49.7099V8.73796C49.7099 11.5212 51.1085 13.1436 54.1155 13.1436C57.0805 13.1436 58.5211 11.5422 58.5211 8.73796V0.405762H61.0386Z" />
</svg>
