<svg width="17" height="276" viewBox="0 0 17 276" fill="none" xmlns="http://www.w3.org/2000/svg">
<g clip-path="url(#clip0_26_7438)">
<path d="M8.32241 261.49C7.50215 262.457 7.07371 263.894 6.91259 265.883L6.71851 268.159C6.63428 269.221 6.35964 270.108 5.9788 270.56C5.60895 271.002 5.12558 271.206 4.60925 271.191C3.97209 271.173 3.46674 270.874 3.08225 270.265C2.66845 269.608 2.4231 268.564 2.45606 267.189C2.48902 265.883 2.84788 264.945 3.38618 264.237C3.91716 263.54 4.69348 263.179 5.4698 263.161L5.59797 263.161L5.59797 260.37L5.52839 260.37C3.91349 260.377 2.59155 260.906 1.59552 261.949C0.599481 262.989 0.0648451 264.668 0.00625488 266.937C-0.0559972 269.261 0.346811 271.049 1.19637 272.25C2.06058 273.472 3.1445 274.107 4.68615 274.147C6.04472 274.183 7.01878 273.731 7.84637 272.76C8.65931 271.808 9.04381 270.425 9.19395 268.696L9.39169 266.324C9.49788 265.018 9.79816 264.058 10.212 263.617C10.6221 263.179 11.1091 262.997 11.706 263.015C13.244 263.055 14.0972 264.624 14.0203 267.539C13.9837 268.958 13.6615 270.126 13.0572 270.878C12.4494 271.633 11.6145 272.111 10.9919 272.133L10.8784 272.133L10.8784 274.924L10.9333 274.924C12.5263 274.917 13.8519 274.275 14.8699 273.012C15.8769 271.764 16.4189 269.907 16.4811 267.488C16.536 265.343 16.1552 263.569 15.3459 262.216C14.5147 260.829 13.266 260.103 11.6328 260.059C10.2669 260.027 9.15733 260.505 8.32241 261.49Z" fill="white"/>
<path d="M0.261719 236L0.261718 220.97L2.22505 220.97L2.22505 227.427L15.7938 227.427L15.7938 229.543L2.22505 229.543L2.22505 236L0.261719 236Z" fill="#FA671A" stroke="#FA671A" stroke-width="0.5"/>
<path d="M0.261718 206.114L2.22505 206.114L2.22505 216.17L6.54437 216.17L6.54437 210.149L8.5077 210.149L8.5077 216.17L13.8087 216.17L13.8087 205.241L15.772 205.241L15.772 218.264L0.261719 218.264L0.261718 206.114Z" fill="#FA671A" stroke="#FA671A" stroke-width="0.5"/>
<path d="M15.7942 204.019L0.174804 196.842L0.174804 195.162L15.7942 187.964L15.7942 190.189L12.042 191.934L12.042 200.202L15.7724 201.925L15.7724 204.019L15.7942 204.019ZM10.1223 199.329L10.1223 192.806L3.03254 196.079L10.1223 199.329Z" fill="#FA671A" stroke="#FA671A" stroke-width="0.5"/>
<path d="M0.261719 182.139L12.8488 176.729L0.261718 171.319L0.261718 168.156L15.7938 168.156L15.7938 170.163L2.09416 170.163L15.8811 176.097L15.8811 177.558L2.18142 183.448L15.7938 183.448L15.7938 185.412L0.261719 185.412L0.261719 182.139Z" fill="#FA671A" stroke="#FA671A" stroke-width="0.5"/>
<path d="M8.02783 147.867C3.53399 147.867 -1.42079e-07 144.617 -3.3565e-07 140.188C-5.3399e-07 135.651 2.94499 133.535 4.82106 133.033L4.82106 135.236C3.73032 135.782 2.00696 137.374 2.00696 140.188C2.00696 143.504 4.77743 145.664 8.04965 145.664C11.3219 145.664 14.0923 143.526 14.0923 140.188C14.0923 137.047 12.2599 135.695 11.2564 135.193L11.2564 133.033C13.0016 133.491 16.0993 135.455 16.0993 140.188C16.0557 144.639 12.5217 147.867 8.02783 147.867Z" fill="#FA671A" stroke="#FA671A" stroke-width="0.5"/>
<path d="M0.261719 127.731L6.98067 127.731L6.98067 118.198L0.261718 118.198L0.261718 116.082L15.7938 116.082L15.7938 118.198L8.944 118.198L8.944 127.731L15.7938 127.731L15.7938 129.847L0.261719 129.847L0.261719 127.731Z" fill="#FA671A" stroke="#FA671A" stroke-width="0.5"/>
<path d="M15.7942 113.507L0.174804 106.33L0.174804 104.651L15.7942 97.4517L15.7942 99.6768L12.0639 101.4L12.0639 109.668L15.7942 111.391L15.7942 113.507ZM10.1223 108.817L10.1223 102.295L3.03254 105.545L10.1223 108.817Z" fill="#FA671A" stroke="#FA671A" stroke-width="0.5"/>
<path d="M0.261719 94.8997L0.261719 92.7836L13.8087 92.7836L13.8087 82.7488L15.7938 82.7488L15.7938 94.8997L0.261719 94.8997Z" fill="#FA671A" stroke="#FA671A" stroke-width="0.5"/>
<path d="M0.261719 80.0654L0.261719 77.9494L13.8087 77.9494L13.8087 67.9146L15.7938 67.9146L15.7938 80.0654L0.261719 80.0654Z" fill="#FA671A" stroke="#FA671A" stroke-width="0.5"/>
<path d="M0.261718 53.0804L2.22505 53.0804L2.22505 63.137L6.54437 63.137L6.54437 57.1161L8.5077 57.1161L8.5077 63.137L13.8087 63.137L13.8087 52.2078L15.772 52.2078L15.772 65.2312L0.261719 65.2312L0.261718 53.0804Z" fill="#FA671A" stroke="#FA671A" stroke-width="0.5"/>
<path d="M0.261719 46.8648L12.1508 37.4845L0.261718 37.4845L0.261718 35.4557L15.9029 35.4557L15.9029 36.9609L2.77042 47.4102L15.7938 47.4102L15.7938 49.439L0.261719 49.439L0.261719 46.8648Z" fill="#FA671A" stroke="#FA671A" stroke-width="0.5"/>
<path d="M16.0557 23.8056C16.0557 28.7794 12.7398 32.0952 8.00602 32.0952C3.4031 32.0952 -1.43986e-07 28.8012 -3.44233e-07 24.2201C-5.32083e-07 19.9226 2.39962 18.0029 3.9921 17.4357L3.9921 19.639C3.29403 20.1844 1.96333 21.5151 1.96333 24.2201C1.96333 27.7323 4.60292 29.9137 8.00602 29.9137C11.6491 29.9137 14.0923 27.4487 14.0923 23.8056C14.0923 21.4496 13.4379 19.8571 12.8271 19.0282L8.98768 19.0282L8.98768 25.1581L7.0898 25.1581L7.0898 17.0212L13.656 17.0212C14.7904 18.221 16.0557 20.3371 16.0557 23.8056Z" fill="#FA671A" stroke="#FA671A" stroke-width="0.5"/>
<path d="M0.261718 1.09772L2.22505 1.09772L2.22505 11.1543L6.54437 11.1543L6.54437 5.13345L8.5077 5.13345L8.5077 11.1543L13.8087 11.1543L13.8087 0.22513L15.772 0.22513L15.772 13.2485L0.261719 13.2485L0.261718 1.09772Z" fill="#FA671A" stroke="#FA671A" stroke-width="0.5"/>
</g>
<defs>
<clipPath id="clip0_26_7438">
<rect width="276" height="17" fill="white" transform="translate(0 276) rotate(-90)"/>
</clipPath>
</defs>
</svg>
