<svg width="17" height="91" viewBox="0 0 17 91" xmlns="http://www.w3.org/2000/svg">
<path d="M3.41593 56.8922V52.1712H13.4824V56.8922H15.9999V44.9372H13.4824V49.6542H3.41593V44.9512H0.898438V56.8922H3.41593Z" />
<path d="M0.898438 39.5842V42.1012H15.9999V29.8282H13.4824V39.5842H0.898438Z" />
<path d="M0.898438 25.4262V27.9402H15.9999V15.6712H13.4824V25.4262H0.898438Z" />
<path d="M0.898438 62.4372L11.909 71.6752H0.898438V74.1922H15.9999V71.8222L10.4055 67.1292L15.9999 62.4372V59.1502L8.44742 65.4862L0.898438 59.1502V62.4372Z" />
<path d="M8.52762 78.1012C7.7444 79.0272 7.3353 80.4052 7.18146 82.3112L6.99614 84.4932C6.91572 85.5102 6.65348 86.3602 6.28985 86.7932C5.9367 87.2162 5.47516 87.4122 4.98215 87.3982C4.37375 87.3812 3.89123 87.0942 3.5241 86.5102C3.12899 85.8812 2.89473 84.8812 2.9262 83.5622C2.95766 82.3112 3.30032 81.4122 3.81431 80.7342C4.32131 80.0662 5.06257 79.7202 5.80383 79.7022H5.92621V77.0272H5.85977C4.31781 77.0342 3.05557 77.5412 2.10451 78.5412C1.15346 79.5382 0.642972 81.1462 0.587027 83.3212C0.527587 85.5492 0.912204 87.2622 1.72339 88.4122C2.54857 89.5832 3.58354 90.1922 5.05557 90.2302C6.35278 90.2652 7.28286 89.8322 8.07307 88.9022C8.8493 87.9892 9.21643 86.6642 9.35979 85.0072L9.5486 82.7342C9.65 81.4822 9.93671 80.5622 10.3318 80.1392C10.7234 79.7202 11.1885 79.5452 11.7584 79.5622C13.2269 79.6012 14.0416 81.1042 13.9682 83.8982C13.9332 85.2582 13.6255 86.3772 13.0486 87.0972C12.4682 87.8212 11.671 88.2792 11.0766 88.3002H10.9682V90.9752H11.0206C12.5416 90.9682 13.8073 90.3532 14.7794 89.1432C15.7409 87.9472 16.2584 86.1672 16.3178 83.8492C16.3703 81.7932 16.0067 80.0942 15.2339 78.7972C14.4402 77.4682 13.2479 76.7722 11.6885 76.7302C10.3843 76.6992 9.32482 77.1572 8.52762 78.1012Z" />
<path d="M8.52762 1.94023C7.7444 2.86723 7.3353 4.24423 7.18146 6.15023L6.99614 8.33223C6.91572 9.34923 6.65348 10.1992 6.28985 10.6322C5.9367 11.0552 5.47516 11.2512 4.98215 11.2372C4.37375 11.2202 3.89123 10.9332 3.5241 10.3492C3.12899 9.72023 2.89473 8.72023 2.9262 7.40123C2.95766 6.15023 3.30032 5.25123 3.81431 4.57323C4.32131 3.90523 5.06257 3.55923 5.80383 3.54123H5.92621V0.867236H5.85977C4.31781 0.874236 3.05557 1.38124 2.10451 2.38124C1.15346 3.37724 0.642972 4.98523 0.587027 7.16023C0.527587 9.38823 0.912204 11.1012 1.72339 12.2512C2.54857 13.4232 3.58354 14.0312 5.05557 14.0692C6.35278 14.1042 7.28286 13.6712 8.07307 12.7412C8.8493 11.8282 9.21643 10.5032 9.35979 8.84623L9.5486 6.57323C9.65 5.32123 9.93671 4.40124 10.3318 3.97824C10.7234 3.55924 11.1885 3.38423 11.7584 3.40123C13.2269 3.44023 14.0416 4.94323 13.9682 7.73723C13.9332 9.09723 13.6255 10.2162 13.0486 10.9362C12.4682 11.6602 11.671 12.1182 11.0766 12.1392H10.9682V14.8072H11.0206C12.5416 14.8002 13.8073 14.1852 14.7794 12.9752C15.7409 11.7792 16.2584 9.99923 16.3178 7.68123C16.3703 5.62523 16.0067 3.92623 15.2339 2.62923C14.4402 1.30023 13.2479 0.604235 11.6885 0.562235C10.3843 0.534235 9.32482 0.996234 8.52762 1.94023Z" />
</svg>
