<svg width="226" height="16" viewBox="0 0 226 16" xmlns="http://www.w3.org/2000/svg">
<path fill-rule="evenodd" clip-rule="evenodd" d="M127.133 8.89474H104.458V7.00662H127.133V8.89474Z"/>
<path d="M0 15.5097H2.51749V10.4747H12.584V7.95726H2.51749V2.92228H13.8427V0.404785H0V15.5097Z"/>
<path d="M31.4653 2.92276H37.1262V15.5102H39.6437V2.92276H45.308V0.405274H31.4653V2.92276Z"/>
<path d="M95.6504 2.9086V0.391114H81.8042V15.4961H95.6504V12.9786H84.3217V9.20234H94.3917V6.68484H84.3217V2.9086H95.6504Z"/>
<path d="M72.1923 9.2165H74.0595C77.0805 9.2165 78.9721 7.48222 78.9721 4.81088C78.9721 2.13954 77.077 0.405274 74.0595 0.405274H63.8706V15.5102H66.3881V9.2165H68.6503L73.9301 15.5102H78.9721V12.9927H75.3567L72.1923 9.2165ZM66.3881 2.8913H74.0595C76.4895 2.8913 76.4895 4.33885 76.4895 4.81438C76.4895 6.73747 74.6609 6.73747 74.0595 6.73747H66.3881V2.8913Z"/>
<path d="M29.5772 0.405274V8.73747C29.5772 13.3738 26.745 15.6606 22.6541 15.6606C18.5387 15.6606 15.731 13.3738 15.731 8.73747V0.405274H18.2485V8.73747C18.2485 11.5207 19.6471 13.1431 22.6541 13.1431C25.6191 13.1431 27.0597 11.5417 27.0597 8.73747V0.405274H29.5772Z"/>
<path d="M61.0386 0.405274V8.73747C61.0386 13.3738 58.2064 15.6606 54.1155 15.6606C50.0001 15.6606 47.1924 13.3738 47.1924 8.73747V0.405274H49.7099V8.73747C49.7099 11.5207 51.1085 13.1431 54.1155 13.1431C57.0805 13.1431 58.5211 11.5417 58.5211 8.73747V0.405274H61.0386Z"/>
<path d="M169.608 2.91593H174.329V12.9824H169.608V15.4999H181.563V12.9824H176.846V2.91593H181.549V0.398438H169.608V2.91593Z"/>
<path d="M186.916 0.398438H184.399V15.4999H196.672V12.9824H186.916V0.398438Z"/>
<path d="M201.074 0.398438H198.56V15.4999H210.829V12.9824H201.074V0.398438Z"/>
<path d="M164.063 0.398438L154.825 11.409V0.398438H152.308V15.4999H154.678L159.371 9.90547L164.063 15.4999H167.35L161.014 7.94742L167.35 0.398438H164.063Z"/>
<path d="M148.399 8.02762C147.473 7.2444 146.095 6.8353 144.189 6.68146L142.007 6.49614C140.99 6.41572 140.14 6.15348 139.707 5.78985C139.284 5.4367 139.088 4.97516 139.102 4.48215C139.119 3.87375 139.406 3.39123 139.99 3.0241C140.619 2.62899 141.619 2.39473 142.938 2.4262C144.189 2.45766 145.088 2.80032 145.766 3.31431C146.434 3.82131 146.78 4.56257 146.798 5.30383V5.42621H149.473V5.35977C149.466 3.81781 148.959 2.55557 147.959 1.60451C146.962 0.653463 145.354 0.142972 143.179 0.0870274C140.951 0.0275866 139.238 0.412204 138.088 1.22339C136.917 2.04857 136.308 3.08354 136.27 4.55557C136.235 5.85278 136.668 6.78286 137.598 7.57307C138.511 8.3493 139.836 8.71643 141.493 8.85979L143.766 9.0486C145.018 9.15 145.938 9.43671 146.361 9.83182C146.78 10.2234 146.955 10.6885 146.938 11.2584C146.899 12.7269 145.396 13.5416 142.602 13.4682C141.242 13.4332 140.123 13.1255 139.403 12.5486C138.679 11.9682 138.221 11.171 138.2 10.5766V10.4682H135.525V10.5206C135.532 12.0416 136.147 13.3073 137.357 14.2794C138.553 15.2409 140.333 15.7584 142.651 15.8178C144.707 15.8703 146.406 15.5067 147.703 14.7339C149.032 13.9402 149.728 12.7479 149.77 11.1885C149.801 9.88427 149.343 8.82482 148.399 8.02762Z"/>
<path d="M224.56 8.02762C223.633 7.2444 222.256 6.8353 220.35 6.68146L218.168 6.49614C217.151 6.41572 216.301 6.15348 215.868 5.78985C215.445 5.4367 215.249 4.97516 215.263 4.48215C215.28 3.87375 215.567 3.39123 216.151 3.0241C216.78 2.62899 217.78 2.39473 219.099 2.4262C220.35 2.45766 221.249 2.80032 221.927 3.31431C222.595 3.82131 222.941 4.56257 222.959 5.30383V5.42621H225.633V5.35977C225.626 3.81781 225.119 2.55557 224.119 1.60451C223.123 0.653463 221.515 0.142972 219.34 0.0870274C217.112 0.0275866 215.399 0.412204 214.249 1.22339C213.077 2.04857 212.469 3.08354 212.431 4.55557C212.396 5.85278 212.829 6.78286 213.759 7.57307C214.672 8.3493 215.997 8.71643 217.654 8.85979L219.927 9.0486C221.179 9.15 222.099 9.43671 222.522 9.83182C222.941 10.2234 223.116 10.6885 223.099 11.2584C223.06 12.7269 221.557 13.5416 218.763 13.4682C217.403 13.4332 216.284 13.1255 215.564 12.5486C214.84 11.9682 214.382 11.171 214.361 10.5766V10.4682H211.693V10.5206C211.7 12.0416 212.315 13.3073 213.525 14.2794C214.721 15.2409 216.501 15.7584 218.819 15.8178C220.875 15.8703 222.574 15.5067 223.871 14.7339C225.2 13.9402 225.896 12.7479 225.938 11.1885C225.966 9.88427 225.504 8.82482 224.56 8.02762Z"/>
</svg>
