<svg width="16" height="96" viewBox="0 0 16 96" xmlns="http://www.w3.org/2000/svg">
<path d="M15.309 95.8515V93.3341H10.274V83.2675H7.75658L7.75658 93.3341H2.7216L2.7216 82.0088H0.204102L0.204102 95.8515H15.309Z"/>
<path d="M2.72208 64.3863L2.72208 58.7254H15.3095V56.2079H2.72208L2.72208 50.5436H0.20459L0.20459 64.3863H2.72208Z"/>
<path d="M2.70792 0.201164H0.19043L0.19043 14.0474L15.2954 14.0474V0.201164L12.7779 0.201164V11.5299H9.00166V1.45986H6.48416L6.48416 11.5299H2.70792L2.70792 0.201164Z"/>
<path d="M9.01582 23.6592V21.792C9.01582 18.771 7.28154 16.8794 4.6102 16.8794C1.93886 16.8794 0.20459 18.7745 0.20459 21.792L0.20459 31.9809H15.3095V29.4634H9.01582V27.2012L15.3095 21.9214L15.3095 16.8794H12.792L12.792 20.4948L9.01582 23.6592ZM2.69062 29.4634L2.69062 21.792C2.69062 19.362 4.13817 19.362 4.6137 19.362C6.53679 19.362 6.53679 21.1906 6.53679 21.792L6.53679 29.4634H2.69062Z"/>
<path d="M0.20459 66.2743H8.53679C13.1731 66.2743 15.4599 69.1065 15.4599 73.1974C15.4599 77.3128 13.1731 80.1205 8.53679 80.1205H0.20459L0.20459 77.603H8.53679C11.32 77.603 12.9424 76.2044 12.9424 73.1974C12.9424 70.2324 11.341 68.7918 8.53679 68.7918H0.20459L0.20459 66.2743Z"/>
<path d="M0.20459 34.813H8.53679C13.1731 34.813 15.4599 37.6452 15.4599 41.7361C15.4599 45.8515 13.1731 48.6592 8.53679 48.6592H0.20459L0.20459 46.1417H8.53679C11.32 46.1417 12.9424 44.7431 12.9424 41.7361C12.9424 38.7711 11.341 37.3305 8.53679 37.3305H0.20459L0.20459 34.813Z"/>
</svg>
