<svg width="91" height="16" viewBox="0 0 91 16" xmlns="http://www.w3.org/2000/svg">
<path d="M34.6079 2.91593H39.3289V12.9824H34.6079V15.4999H46.5629V12.9824H41.8459V2.91593H46.5489V0.398438H34.6079V2.91593Z" />
<path d="M51.9159 0.398438H49.3989V15.4999H61.6719V12.9824H51.9159V0.398438Z" />
<path d="M66.0739 0.398438H63.5599V15.4999H75.8289V12.9824H66.0739V0.398438Z" />
<path d="M29.0629 0.398438L19.8249 11.409V0.398438H17.3079V15.4999H19.6779L24.3709 9.90547L29.0629 15.4999H32.3499L26.0139 7.94742L32.3499 0.398438H29.0629Z" />
<path d="M13.3989 8.02762C12.4729 7.2444 11.0949 6.8353 9.1889 6.68146L7.00691 6.49614C5.98991 6.41572 5.13991 6.15348 4.70691 5.78985C4.28391 5.4367 4.08791 4.97516 4.10191 4.48215C4.11891 3.87375 4.40591 3.39123 4.98991 3.0241C5.61891 2.62899 6.61891 2.39473 7.93791 2.4262C9.18891 2.45766 10.0879 2.80032 10.7659 3.31431C11.4339 3.82131 11.7799 4.56257 11.7979 5.30383V5.42621H14.4729V5.35977C14.4659 3.81781 13.9589 2.55557 12.9589 1.60451C11.9619 0.653463 10.3539 0.142972 8.17891 0.0870274C5.95091 0.0275866 4.23791 0.412204 3.08791 1.22339C1.91691 2.04857 1.30791 3.08354 1.26991 4.55557C1.23491 5.85278 1.66792 6.78286 2.59792 7.57307C3.51092 8.3493 4.8359 8.71643 6.4929 8.85979L8.76591 9.0486C10.0179 9.15 10.9379 9.43671 11.3609 9.83182C11.7799 10.2234 11.9549 10.6885 11.9379 11.2584C11.8989 12.7269 10.3959 13.5416 7.60191 13.4682C6.24191 13.4332 5.12291 13.1255 4.40291 12.5486C3.67891 11.9682 3.22091 11.171 3.19991 10.5766V10.4682H0.524902V10.5206C0.531902 12.0416 1.1469 13.3073 2.3569 14.2794C3.5529 15.2409 5.33291 15.7584 7.65091 15.8178C9.70691 15.8703 11.4059 15.5067 12.7029 14.7339C14.0319 13.9402 14.7279 12.7479 14.7699 11.1885C14.8009 9.88427 14.3429 8.82482 13.3989 8.02762Z" />
<path d="M89.5599 8.02762C88.6329 7.2444 87.2559 6.8353 85.3499 6.68146L83.1679 6.49614C82.1509 6.41572 81.3009 6.15348 80.8679 5.78985C80.4449 5.4367 80.2489 4.97516 80.2629 4.48215C80.2799 3.87375 80.5669 3.39123 81.1509 3.0241C81.7799 2.62899 82.7799 2.39473 84.0989 2.4262C85.3499 2.45766 86.2489 2.80032 86.9269 3.31431C87.5949 3.82131 87.9409 4.56257 87.9589 5.30383V5.42621H90.6329V5.35977C90.6259 3.81781 90.1189 2.55557 89.1189 1.60451C88.1229 0.653463 86.5149 0.142972 84.3399 0.0870274C82.1119 0.0275866 80.3989 0.412204 79.2489 1.22339C78.0769 2.04857 77.4689 3.08354 77.4309 4.55557C77.3959 5.85278 77.8289 6.78286 78.7589 7.57307C79.6719 8.3493 80.9969 8.71643 82.6539 8.85979L84.9269 9.0486C86.1789 9.15 87.0989 9.43671 87.5219 9.83182C87.9409 10.2234 88.1159 10.6885 88.0989 11.2584C88.0599 12.7269 86.5569 13.5416 83.7629 13.4682C82.4029 13.4332 81.2839 13.1255 80.5639 12.5486C79.8399 11.9682 79.3819 11.171 79.3609 10.5766V10.4682H76.6929V10.5206C76.6999 12.0416 77.3149 13.3073 78.5249 14.2794C79.7209 15.2409 81.5009 15.7584 83.8189 15.8178C85.8749 15.8703 87.5739 15.5067 88.8709 14.7339C90.1999 13.9402 90.8959 12.7479 90.9379 11.1885C90.9659 9.88427 90.5039 8.82482 89.5599 8.02762Z" />
</svg>
