<svg width="18" height="18" viewBox="0 0 18 18" xmlns="http://www.w3.org/2000/svg">
<path d="M1.27544 2C0.580839 2 0 2.56172 0 3.25581V12.4651C0 13.1592 0.580839 13.7209 1.27544 13.7209H16.7246C17.4192 13.7209 18 13.1592 18 12.4651V3.25581C18 2.56172 17.4192 2 16.7246 2H1.27544ZM1.49128 2.83721H16.5087L9.36628 9.22093C9.18817 9.3801 8.81183 9.3801 8.63372 9.22093L1.49128 2.83721ZM0.837209 3.37355L6.06323 8.0436L0.837209 12.3735V3.37355ZM17.1628 3.37355V12.3735L11.9368 8.0436L17.1628 3.37355ZM6.69767 8.61263L8.07776 9.84228C8.60116 10.3101 9.39884 10.3101 9.92224 9.84228L11.3023 8.61263L16.4629 12.8837H1.53706L6.69767 8.61263Z" />
</svg>
