<svg width="47" height="59" viewBox="0 0 47 59" fill="none" xmlns="http://www.w3.org/2000/svg">
<path d="M27.3713 25.6677V20.4637H32.8492L36.8402 16.4336" stroke="white" stroke-width="1.23517" stroke-miterlimit="10" stroke-linejoin="bevel"/>
<path d="M27.3713 37.1713V31.2239H39.853" stroke="white" stroke-width="1.23517" stroke-miterlimit="10" stroke-linejoin="bevel"/>
<path d="M27.3717 14.3207V12.7165C27.3717 8.7646 24.1632 5.55615 20.2113 5.55615C16.6899 5.55615 13.7553 8.09944 13.1293 11.4644C13.0901 11.4644 13.051 11.4644 13.0119 11.4644C6.82975 11.4644 1.82143 16.4727 1.82143 22.6549C1.82143 25.5112 2.87788 28.1327 4.63861 30.0891C2.79962 31.3803 1.58667 33.5323 1.58667 35.9582C1.58667 38.7362 3.15177 41.123 5.46029 42.336C5.10814 43.3924 4.95163 44.5271 4.95163 45.7009C4.95163 51.8831 9.95995 56.8914 16.1421 56.8914C22.3242 56.8914 27.3325 51.8831 27.3325 45.7009V42.4925H32.8104L36.8014 46.4835" stroke="white" stroke-width="1.23517" stroke-miterlimit="10" stroke-linejoin="bevel"/>
<path d="M1.82129 22.6549C1.82129 28.837 6.8296 33.8454 13.0117 33.8454" stroke="white" stroke-width="1.23517" stroke-miterlimit="10" stroke-linejoin="bevel"/>
<path d="M14.4988 29.0718C13.2076 30.2456 12.425 31.9672 12.425 33.8453C12.425 37.4451 15.3596 40.3796 18.9593 40.3796" stroke="white" stroke-width="1.23517" stroke-miterlimit="10" stroke-linejoin="bevel"/>
<path d="M45.4485 28.4066H39.8533V34.0018H45.4485V28.4066Z" stroke="#60FF54" stroke-width="1.23517" stroke-miterlimit="10" stroke-linejoin="bevel"/>
<path d="M38.8302 10.5381L34.8738 14.4945L38.8302 18.4509L42.7866 14.4945L38.8302 10.5381Z" stroke="#60FF54" stroke-width="1.23517" stroke-miterlimit="10" stroke-linejoin="bevel"/>
<path d="M38.8248 44.5417L34.8684 48.498L38.8248 52.4544L42.7812 48.498L38.8248 44.5417Z" stroke="#60FF54" stroke-width="1.23517" stroke-miterlimit="10" stroke-linejoin="bevel"/>
<path d="M27.3721 14.3207V0" stroke="white" stroke-width="1.23517" stroke-miterlimit="10" stroke-linejoin="bevel"/>
<path d="M27.3721 42.5315V58.6911" stroke="white" stroke-width="1.23517" stroke-miterlimit="10" stroke-linejoin="bevel"/>
</svg>
