<svg width="45" height="62" viewBox="0 0 45 62" fill="none" xmlns="http://www.w3.org/2000/svg">
<path d="M24.373 0.404297V34.7602" stroke="#60FF54" stroke-width="1.23517" stroke-miterlimit="10" stroke-linejoin="bevel"/>
<path d="M24.373 22.1091L34.1544 12.2874" stroke="#60FF54" stroke-width="1.23517" stroke-miterlimit="10" stroke-linejoin="bevel"/>
<path d="M27.4041 36.66L41.591 22.5134" stroke="#60FF54" stroke-width="1.23517" stroke-miterlimit="10" stroke-linejoin="bevel"/>
<path d="M38.1958 17.1781L24.3726 0.404297L10.509 17.2185C3.03149 26.2723 2.78898 38.8021 8.81137 48.0176L12.4086 51.6149V23.3217H18.3906V34.5177H24.3726V36.6599H30.3546V38.5596H36.3366V43.0057V52.2616C45.7945 43.0461 46.8858 27.7678 38.1958 17.1781Z" stroke="#60FF54" stroke-width="1.23517" stroke-miterlimit="10" stroke-linejoin="bevel"/>
<path d="M30.3547 38.5999V36.7003H24.3727V34.5581H18.3908V23.3217H12.4088V51.6148L8.3669 47.5729C6.58848 45.7945 3.67833 45.7945 1.8999 47.5729L0.444824 49.028L12.4492 61.0324H31.0418V55.7375H36.3367V43.046V38.5999H30.3547Z" stroke="white" stroke-width="1.23517" stroke-miterlimit="10" stroke-linejoin="bevel"/>
<path d="M18.3909 34.5177V43.0461" stroke="white" stroke-width="1.23517" stroke-miterlimit="10" stroke-linejoin="bevel"/>
<path d="M24.3728 34.7601V43.2885" stroke="white" stroke-width="1.23517" stroke-miterlimit="10" stroke-linejoin="bevel"/>
<path d="M30.3547 38.6V43.6119" stroke="white" stroke-width="1.23517" stroke-miterlimit="10" stroke-linejoin="bevel"/>
</svg>
