<svg width="54" height="54" viewBox="0 0 54 54" fill="none" xmlns="http://www.w3.org/2000/svg">
<path d="M39.1173 8.84497H14.866V14.8663H8.84473V39.1176H14.866V45.1389H39.1173V39.1176H45.1387V14.8663H39.1173V8.84497Z" stroke="white" stroke-width="1.23517" stroke-miterlimit="10" stroke-linejoin="bevel"/>
<path d="M30.7291 36.5431H36.5427V17.441H17.4407V23.1717" stroke="white" stroke-width="1.23517" stroke-miterlimit="10" stroke-linejoin="bevel"/>
<path d="M27.9468 36.5431C26.8671 31.2693 22.7145 27.1167 17.4407 26.037" stroke="#60FF54" stroke-width="1.23517" stroke-miterlimit="10" stroke-linejoin="bevel"/>
<path d="M24.6247 36.5432C23.7111 33.055 20.9289 30.3142 17.4407 29.3591" stroke="#60FF54" stroke-width="1.23517" stroke-miterlimit="10" stroke-linejoin="bevel"/>
<path d="M21.2196 36.543C20.5136 34.8405 19.1432 33.4701 17.4407 32.7642" stroke="#60FF54" stroke-width="1.23517" stroke-miterlimit="10" stroke-linejoin="bevel"/>
<path d="M19.7661 8.84509V0" stroke="white" stroke-width="1.23517" stroke-miterlimit="10" stroke-linejoin="bevel"/>
<path d="M34.2178 8.84509V0" stroke="white" stroke-width="1.23517" stroke-miterlimit="10" stroke-linejoin="bevel"/>
<path d="M26.9915 8.84508V2.28394" stroke="white" stroke-width="1.23517" stroke-miterlimit="10" stroke-linejoin="bevel"/>
<path d="M19.7661 53.9841V45.139" stroke="white" stroke-width="1.23517" stroke-miterlimit="10" stroke-linejoin="bevel"/>
<path d="M34.2178 53.9841V45.139" stroke="white" stroke-width="1.23517" stroke-miterlimit="10" stroke-linejoin="bevel"/>
<path d="M26.9915 51.7002V45.139" stroke="white" stroke-width="1.23517" stroke-miterlimit="10" stroke-linejoin="bevel"/>
<path d="M45.1392 19.7666H53.9842" stroke="white" stroke-width="1.23517" stroke-miterlimit="10" stroke-linejoin="bevel"/>
<path d="M45.1392 34.2175H53.9842" stroke="white" stroke-width="1.23517" stroke-miterlimit="10" stroke-linejoin="bevel"/>
<path d="M45.1392 26.9921H51.7003" stroke="white" stroke-width="1.23517" stroke-miterlimit="10" stroke-linejoin="bevel"/>
<path d="M-0.000244141 19.7666H8.84484" stroke="white" stroke-width="1.23517" stroke-miterlimit="10" stroke-linejoin="bevel"/>
<path d="M-0.000244141 34.2175H8.84484" stroke="white" stroke-width="1.23517" stroke-miterlimit="10" stroke-linejoin="bevel"/>
<path d="M2.28369 26.9921H8.84484" stroke="white" stroke-width="1.23517" stroke-miterlimit="10" stroke-linejoin="bevel"/>
</svg>
