<svg width="48" height="62" viewBox="0 0 48 62" fill="none" xmlns="http://www.w3.org/2000/svg">
<path fill-rule="evenodd" clip-rule="evenodd" d="M19.8895 53.4742L9.12402 42.6704L10.1088 41.6891L20.3828 51.9996L23.7215 48.6609L24.7021 48.6584L28.0409 51.9638L38.279 41.6891L39.2638 42.6704L28.5366 53.4359L27.5552 53.4392L24.2155 50.133L20.8734 53.475L19.8895 53.4742Z" fill="url(#paint0_linear)"/>
<path fill-rule="evenodd" clip-rule="evenodd" d="M33.3222 41.1026L24.7021 49.6461L23.7135 49.636L15.4382 41.0925L16.4368 40.1253L24.2229 48.1637L32.3435 40.1152L33.3222 41.1026Z" fill="url(#paint1_linear)"/>
<path fill-rule="evenodd" clip-rule="evenodd" d="M24.366 2.53296C16.9751 2.53296 11.0008 8.54067 11.0008 15.9365C11.0008 19.736 11.9124 24.6038 14.0696 28.4961C16.217 32.3707 19.5436 35.2016 24.4043 35.2016C29.1854 35.2016 32.5039 32.374 34.663 28.495C36.8304 24.601 37.7695 19.7327 37.7695 15.9365C37.7695 8.54314 31.7593 2.53296 24.366 2.53296ZM9.6106 15.9365C9.6106 7.77782 16.2024 1.14276 24.366 1.14276C32.5271 1.14276 39.1597 7.77535 39.1597 15.9365C39.1597 19.9174 38.1831 25.0292 35.8777 29.1711C33.564 33.3279 29.8523 36.5918 24.4043 36.5918C18.8826 36.5918 15.1599 33.3312 12.8536 29.17C10.5571 25.0264 9.6106 19.9142 9.6106 15.9365Z" fill="white"/>
<path fill-rule="evenodd" clip-rule="evenodd" d="M1.8335 54.0562C1.8335 46.2399 8.15959 39.9138 15.9759 39.9138H32.8329C40.6506 39.9138 46.9714 46.2397 47.0519 54.0491L47.052 54.0562L47.0519 54.2861L46.3568 54.9812H42.0331V59.3049L41.338 60H7.54739L6.85229 59.3049V54.9812H2.5286L1.8335 54.2861V54.0562ZM3.23201 53.591H7.54739L8.24249 54.2861V58.6098H40.6429V54.2861L41.338 53.591H45.6484C45.3324 46.755 39.7221 41.304 32.8329 41.304H15.9759C9.08313 41.304 3.47642 46.7584 3.23201 53.591Z" fill="white"/>
<path fill-rule="evenodd" clip-rule="evenodd" d="M17.8479 12.2868L18.9863 12.1444C18.9873 12.1435 18.9872 12.1435 18.9872 12.1434L18.9866 12.1427L18.9857 12.1417C18.9852 12.1412 18.985 12.141 18.9851 12.1411L18.9889 12.1452C18.9936 12.1503 19.0028 12.1601 19.0167 12.1742C19.0445 12.2026 19.0909 12.2485 19.1575 12.3095C19.2908 12.4314 19.505 12.6138 19.8124 12.837C20.427 13.2832 21.4161 13.8941 22.8784 14.5105C25.8022 15.7431 30.6313 17.0037 38.158 17.0037V18.3939C30.4751 18.3939 25.4582 17.1067 22.3384 15.7916C20.7789 15.1342 19.6968 14.4711 18.9956 13.962C18.8567 13.8611 18.7328 13.7663 18.6231 13.6789C18.5977 13.7167 18.5711 13.7555 18.5435 13.7954C18.1917 14.3031 17.662 14.9789 16.9469 15.6558C15.5163 17.0101 13.3137 18.3939 10.3057 18.3939V17.0037C12.8527 17.0037 14.7304 15.8397 15.9912 14.6462C16.6217 14.0494 17.0905 13.4513 17.4008 13.0036C17.5556 12.7802 17.6699 12.5957 17.7443 12.4694C17.7815 12.4064 17.8086 12.358 17.8257 12.3267L17.8439 12.293L17.8471 12.2869L17.8473 12.2864C17.8473 12.2865 17.8473 12.2865 17.8479 12.2868ZM17.8477 12.2857C17.8477 12.2857 17.8477 12.2857 17.8477 12.2858L17.8477 12.2857ZM17.8475 12.2861L17.8474 12.2864C17.8475 12.2861 17.8476 12.2859 17.8477 12.2858L17.8475 12.2861Z" fill="white"/>
<defs>
<linearGradient id="paint0_linear" x1="24.1939" y1="41.6891" x2="24.1939" y2="53.475" gradientUnits="userSpaceOnUse">
<stop stop-color="#45FF27"/>
<stop offset="1" stop-color="#17FFB9"/>
</linearGradient>
<linearGradient id="paint1_linear" x1="24.3802" y1="40.1152" x2="24.3802" y2="49.6461" gradientUnits="userSpaceOnUse">
<stop stop-color="#45FF27"/>
<stop offset="1" stop-color="#17FFB9"/>
</linearGradient>
</defs>
</svg>
