<svg width="48" height="62" viewBox="0 0 48 62" fill="none" xmlns="http://www.w3.org/2000/svg">
<path fill-rule="evenodd" clip-rule="evenodd" d="M24.5177 3.37097C17.2273 3.37097 11.3386 9.25967 11.3386 16.55C11.3386 20.2977 12.2285 25.098 14.3464 28.9358C16.4545 32.756 19.7252 35.5469 24.5177 35.5469C29.2322 35.5469 32.5045 32.7587 34.6335 28.9337C36.7708 25.0939 37.6968 20.2935 37.6968 16.55C37.6968 9.25967 31.808 3.37097 24.5177 3.37097ZM9.96777 16.55C9.96777 8.50257 16.4702 2.00012 24.5177 2.00012C32.5651 2.00012 39.0676 8.50257 39.0676 16.55C39.0676 20.4755 38.1047 25.5162 35.8313 29.6004C33.5498 33.6993 29.8899 36.9177 24.5177 36.9177C19.0723 36.9177 15.4108 33.702 13.1462 29.5982C10.8913 25.5121 9.96777 20.4713 9.96777 16.55Z" fill="white"/>
<path fill-rule="evenodd" clip-rule="evenodd" d="M29.5559 12.813L30.6692 12.93C30.6697 12.9297 30.6697 12.9297 30.6697 12.9297L30.6698 12.9298L30.6699 12.9301L30.6736 12.9365L30.6933 12.9703C30.7118 13.0014 30.7409 13.0495 30.7806 13.1121C30.86 13.2374 30.9816 13.4202 31.1448 13.6414C31.4721 14.0847 31.963 14.6769 32.6142 15.2681C33.9181 16.4519 35.8295 17.6024 38.3443 17.6024V18.9732C35.3813 18.9732 33.1561 17.6115 31.6928 16.283C30.9603 15.6181 30.41 14.9542 30.0419 14.4554C30.005 14.4055 29.9699 14.3571 29.9366 14.3105C29.8254 14.4001 29.6988 14.4978 29.5561 14.602C28.8679 15.1044 27.8054 15.7585 26.2721 16.4069C23.2047 17.704 18.2668 18.9732 10.6909 18.9732V17.6024C18.1129 17.6024 22.8649 16.3593 25.7382 15.1443C27.1752 14.5366 28.1456 13.9345 28.7477 13.4948C29.049 13.2749 29.2587 13.0952 29.389 12.9751C29.4541 12.9151 29.4995 12.87 29.5265 12.8421C29.5401 12.8282 29.549 12.8186 29.5536 12.8136L29.5566 12.8103L29.5557 12.8113L29.5551 12.812C29.5551 12.8121 29.555 12.8121 29.5559 12.813Z" fill="white"/>
<path fill-rule="evenodd" clip-rule="evenodd" d="M33.3125 41.3647L24.8503 49.7892L23.8744 49.7803L15.7144 41.3558L16.699 40.4021L24.3756 48.3274L32.3454 40.3932L33.3125 41.3647Z" fill="url(#paint0_linear)"/>
<path fill-rule="evenodd" clip-rule="evenodd" d="M9.96777 42.0868L10.0056 18.2867L11.3764 18.2889L11.3386 42.0889L9.96777 42.0868Z" fill="white"/>
<path fill-rule="evenodd" clip-rule="evenodd" d="M37.6592 42.0501V18.2878H39.03V42.0501H37.6592Z" fill="white"/>
<path fill-rule="evenodd" clip-rule="evenodd" d="M39.3962 42.9125L28.7806 53.5281H27.8113L24.556 50.2728L21.2628 53.5659H20.2935L9.64014 42.9125L10.6095 41.9432L20.7782 52.1119L24.0713 48.8188H25.0406L28.296 52.0741L38.4269 41.9432L39.3962 42.9125Z" fill="url(#paint1_linear)"/>
<path fill-rule="evenodd" clip-rule="evenodd" d="M2.26147 54.139C2.26147 46.4315 8.49948 40.1935 16.2069 40.1935H32.8292C40.5348 40.1935 46.8105 46.4289 46.8502 54.1355L46.8503 54.139L46.8502 54.3657L46.1648 55.0511H41.9013V59.3146L41.2159 60H7.8958L7.21038 59.3146V55.0511H2.9469L2.26147 54.3657V54.139ZM3.64051 53.6803H7.8958L8.58122 54.3657V58.6292H40.5305V54.3657L41.2159 53.6803H45.4687C45.1908 46.9435 39.6266 41.5644 32.8292 41.5644H16.2069C9.41016 41.5644 3.88152 46.9428 3.64051 53.6803Z" fill="white"/>
<defs>
<linearGradient id="paint0_linear" x1="24.5134" y1="40.3932" x2="24.5134" y2="49.7892" gradientUnits="userSpaceOnUse">
<stop stop-color="#45FF27"/>
<stop offset="1" stop-color="#17FFB9"/>
</linearGradient>
<linearGradient id="paint1_linear" x1="24.5182" y1="41.9432" x2="24.5182" y2="53.5659" gradientUnits="userSpaceOnUse">
<stop stop-color="#45FF27"/>
<stop offset="1" stop-color="#17FFB9"/>
</linearGradient>
</defs>
</svg>
